<svg width="127" height="86" viewBox="0 0 127 86" fill="none" xmlns="http://www.w3.org/2000/svg">
<g opacity="0.8" clip-path="url(#clip0_15_864)">
<path d="M89.3809 3.14585C87.9897 3.14585 86.9464 2.62693 86.9464 1.93505C86.9464 1.24316 87.9897 0.724243 89.3809 0.724243C90.772 0.724243 91.8153 1.24316 91.8153 1.93505C91.8153 2.62693 90.656 3.14585 89.3809 3.14585Z" fill="white"/>
<path d="M89.3809 13.4665C87.9897 13.4665 86.9464 12.9476 86.9464 12.2557C86.9464 11.5638 87.9897 11.0449 89.3809 11.0449C90.772 11.0449 91.8153 11.5638 91.8153 12.2557C91.8153 12.89 90.656 13.4665 89.3809 13.4665Z" fill="white"/>
<path d="M89.3809 23.7293C87.9897 23.7293 86.9464 23.2104 86.9464 22.5185C86.9464 21.8267 87.9897 21.3077 89.3809 21.3077C90.772 21.3077 91.8153 21.8267 91.8153 22.5185C91.8153 23.2104 90.656 23.7293 89.3809 23.7293Z" fill="white"/>
<path d="M89.3809 34.05C87.9897 34.05 86.9464 33.5311 86.9464 32.8392C86.9464 32.1473 87.9897 31.6284 89.3809 31.6284C90.772 31.6284 91.8153 32.1473 91.8153 32.8392C91.8153 33.5311 90.656 34.05 89.3809 34.05Z" fill="white"/>
<path d="M89.3809 44.3707C87.9897 44.3707 86.9464 43.8518 86.9464 43.1599C86.9464 42.468 87.9897 41.9491 89.3809 41.9491C90.772 41.9491 91.8153 42.468 91.8153 43.1599C91.8153 43.7941 90.656 44.3707 89.3809 44.3707Z" fill="white"/>
<path d="M89.3809 54.6914C87.9897 54.6914 86.9464 54.1725 86.9464 53.4806C86.9464 52.7887 87.9897 52.2698 89.3809 52.2698C90.772 52.2698 91.8153 52.7887 91.8153 53.4806C91.8153 54.1725 90.656 54.6914 89.3809 54.6914Z" fill="white"/>
<path d="M89.3809 64.9543C87.9897 64.9543 86.9464 64.4354 86.9464 63.7435C86.9464 63.0516 87.9897 62.5327 89.3809 62.5327C90.772 62.5327 91.8153 63.0516 91.8153 63.7435C91.8153 64.4354 90.656 64.9543 89.3809 64.9543Z" fill="white"/>
<path d="M89.3809 75.275C87.9897 75.275 86.9464 74.7561 86.9464 74.0642C86.9464 73.3723 87.9897 72.8534 89.3809 72.8534C90.772 72.8534 91.8153 73.3723 91.8153 74.0642C91.8153 74.7561 90.656 75.275 89.3809 75.275Z" fill="white"/>
<path d="M89.3809 85.5957C87.9897 85.5957 86.9464 85.0768 86.9464 84.3849C86.9464 83.693 87.9897 83.1741 89.3809 83.1741C90.772 83.1741 91.8153 83.693 91.8153 84.3849C91.8153 85.0191 90.656 85.5957 89.3809 85.5957Z" fill="white"/>
<path d="M72.108 3.14585C70.7169 3.14585 69.6736 2.62693 69.6736 1.93505C69.6736 1.24316 70.7169 0.724243 72.108 0.724243C73.4991 0.724243 74.5425 1.24316 74.5425 1.93505C74.5425 2.62693 73.4991 3.14585 72.108 3.14585Z" fill="white"/>
<path d="M72.108 13.4665C70.7169 13.4665 69.6736 12.9476 69.6736 12.2557C69.6736 11.5638 70.7169 11.0449 72.108 11.0449C73.4991 11.0449 74.5425 11.5638 74.5425 12.2557C74.5425 12.89 73.4991 13.4665 72.108 13.4665Z" fill="white"/>
<path d="M72.108 23.7293C70.7169 23.7293 69.6736 23.2104 69.6736 22.5185C69.6736 21.8267 70.7169 21.3077 72.108 21.3077C73.4991 21.3077 74.5425 21.8267 74.5425 22.5185C74.5425 23.2104 73.4991 23.7293 72.108 23.7293Z" fill="white"/>
<path d="M72.108 34.05C70.7169 34.05 69.6736 33.5311 69.6736 32.8392C69.6736 32.1473 70.7169 31.6284 72.108 31.6284C73.4991 31.6284 74.5425 32.1473 74.5425 32.8392C74.5425 33.5311 73.4991 34.05 72.108 34.05Z" fill="white"/>
<path d="M72.108 44.3707C70.7169 44.3707 69.6736 43.8518 69.6736 43.1599C69.6736 42.468 70.7169 41.9491 72.108 41.9491C73.4991 41.9491 74.5425 42.468 74.5425 43.1599C74.5425 43.7941 73.4991 44.3707 72.108 44.3707Z" fill="white"/>
<path d="M72.108 54.6914C70.7169 54.6914 69.6736 54.1725 69.6736 53.4806C69.6736 52.7887 70.7169 52.2698 72.108 52.2698C73.4991 52.2698 74.5425 52.7887 74.5425 53.4806C74.5425 54.1725 73.4991 54.6914 72.108 54.6914Z" fill="white"/>
<path d="M72.108 64.9544C70.7169 64.9544 69.6736 64.4355 69.6736 63.7436C69.6736 63.0518 70.7169 62.5328 72.108 62.5328C73.4991 62.5328 74.5425 63.0518 74.5425 63.7436C74.5425 64.4355 73.4991 64.9544 72.108 64.9544Z" fill="white"/>
<path d="M72.108 75.275C70.7169 75.275 69.6736 74.7561 69.6736 74.0642C69.6736 73.3723 70.7169 72.8534 72.108 72.8534C73.4991 72.8534 74.5425 73.3723 74.5425 74.0642C74.5425 74.7561 73.4991 75.275 72.108 75.275Z" fill="white"/>
<path d="M72.108 85.5957C70.7169 85.5957 69.6736 85.0768 69.6736 84.3849C69.6736 83.693 70.7169 83.1741 72.108 83.1741C73.4991 83.1741 74.5425 83.693 74.5425 84.3849C74.5425 85.0191 73.4991 85.5957 72.108 85.5957Z" fill="white"/>
<path d="M123.811 3.14585C122.42 3.14585 121.377 2.62693 121.377 1.93505C121.377 1.24316 122.42 0.724243 123.811 0.724243C125.202 0.724243 126.245 1.24316 126.245 1.93505C126.245 2.62693 125.202 3.14585 123.811 3.14585Z" fill="white"/>
<path d="M123.811 13.4665C122.42 13.4665 121.377 12.9476 121.377 12.2557C121.377 11.5638 122.42 11.0449 123.811 11.0449C125.202 11.0449 126.245 11.5638 126.245 12.2557C126.245 12.89 125.202 13.4665 123.811 13.4665Z" fill="white"/>
<path d="M123.811 23.7293C122.42 23.7293 121.377 23.2104 121.377 22.5185C121.377 21.8267 122.42 21.3077 123.811 21.3077C125.202 21.3077 126.245 21.8843 126.245 22.5185C126.245 23.2104 125.202 23.7293 123.811 23.7293Z" fill="white"/>
<path d="M123.811 34.0501C122.42 34.0501 121.377 33.5312 121.377 32.8393C121.377 32.1475 122.42 31.6285 123.811 31.6285C125.202 31.6285 126.245 32.2051 126.245 32.8393C126.245 33.4736 125.202 34.0501 123.811 34.0501Z" fill="white"/>
<path d="M123.811 44.3707C122.42 44.3707 121.377 43.8518 121.377 43.1599C121.377 42.468 122.42 41.9491 123.811 41.9491C125.202 41.9491 126.245 42.468 126.245 43.1599C126.245 43.7941 125.202 44.3707 123.811 44.3707Z" fill="white"/>
<path d="M123.811 54.6914C122.42 54.6914 121.377 54.1725 121.377 53.4806C121.377 52.7887 122.42 52.2698 123.811 52.2698C125.202 52.2698 126.245 52.7887 126.245 53.4806C126.245 54.1725 125.202 54.6914 123.811 54.6914Z" fill="white"/>
<path d="M123.811 64.9543C122.42 64.9543 121.377 64.4354 121.377 63.7435C121.377 63.0516 122.42 62.5327 123.811 62.5327C125.202 62.5327 126.245 63.0516 126.245 63.7435C126.245 64.4354 125.202 64.9543 123.811 64.9543Z" fill="white"/>
<path d="M123.811 75.275C122.42 75.275 121.377 74.7561 121.377 74.0642C121.377 73.3723 122.42 72.8534 123.811 72.8534C125.202 72.8534 126.245 73.3723 126.245 74.0642C126.245 74.7561 125.202 75.275 123.811 75.275Z" fill="white"/>
<path d="M123.811 85.5957C122.42 85.5957 121.377 85.0768 121.377 84.3849C121.377 83.693 122.42 83.1741 123.811 83.1741C125.202 83.1741 126.245 83.693 126.245 84.3849C126.245 85.0191 125.202 85.5957 123.811 85.5957Z" fill="white"/>
<path d="M106.538 3.14585C105.147 3.14585 104.103 2.62693 104.103 1.93505C104.103 1.24316 105.263 0.724243 106.538 0.724243C107.929 0.724243 108.972 1.24316 108.972 1.93505C108.972 2.62693 107.929 3.14585 106.538 3.14585Z" fill="white"/>
<path d="M106.538 13.4665C105.147 13.4665 104.103 12.9476 104.103 12.2557C104.103 11.5638 105.147 11.0449 106.538 11.0449C107.929 11.0449 108.972 11.5638 108.972 12.2557C108.972 12.89 107.929 13.4665 106.538 13.4665Z" fill="white"/>
<path d="M106.538 23.7293C105.147 23.7293 104.103 23.2104 104.103 22.5185C104.103 21.8267 105.147 21.3077 106.538 21.3077C107.929 21.3077 108.972 21.8267 108.972 22.5185C108.972 23.2104 107.929 23.7293 106.538 23.7293Z" fill="white"/>
<path d="M106.538 34.0501C105.147 34.0501 104.103 33.5312 104.103 32.8393C104.103 32.1475 105.147 31.6285 106.538 31.6285C107.929 31.6285 108.972 32.1475 108.972 32.8393C108.972 33.5312 107.929 34.0501 106.538 34.0501Z" fill="white"/>
<path d="M106.538 44.3707C105.147 44.3707 104.103 43.8518 104.103 43.1599C104.103 42.468 105.147 41.9491 106.538 41.9491C107.929 41.9491 108.972 42.468 108.972 43.1599C108.972 43.7941 107.929 44.3707 106.538 44.3707Z" fill="white"/>
<path d="M106.538 54.6914C105.147 54.6914 104.103 54.1725 104.103 53.4806C104.103 52.7887 105.147 52.2698 106.538 52.2698C107.929 52.2698 108.972 52.7887 108.972 53.4806C108.972 54.1725 107.929 54.6914 106.538 54.6914Z" fill="white"/>
<path d="M106.538 64.9543C105.147 64.9543 104.103 64.4354 104.103 63.7435C104.103 63.0516 105.147 62.5327 106.538 62.5327C107.929 62.5327 108.972 63.0516 108.972 63.7435C108.972 64.4354 107.929 64.9543 106.538 64.9543Z" fill="white"/>
<path d="M106.538 75.275C105.147 75.275 104.103 74.7561 104.103 74.0642C104.103 73.3723 105.147 72.8534 106.538 72.8534C107.929 72.8534 108.972 73.3723 108.972 74.0642C108.972 74.7561 107.929 75.275 106.538 75.275Z" fill="white"/>
<path d="M106.538 85.5957C105.147 85.5957 104.103 85.0768 104.103 84.3849C104.103 83.693 105.147 83.1741 106.538 83.1741C107.929 83.1741 108.972 83.693 108.972 84.3849C108.972 85.0191 107.929 85.5957 106.538 85.5957Z" fill="white"/>
<path d="M54.9507 3.14585C53.5596 3.14585 52.5162 2.62693 52.5162 1.93505C52.5162 1.24316 53.5596 0.724243 54.9507 0.724243C56.3418 0.724243 57.3851 1.24316 57.3851 1.93505C57.3851 2.62693 56.2259 3.14585 54.9507 3.14585Z" fill="white"/>
<path d="M54.9507 13.4665C53.5596 13.4665 52.5162 12.9476 52.5162 12.2557C52.5162 11.5638 53.5596 11.0449 54.9507 11.0449C56.3418 11.0449 57.3851 11.5638 57.3851 12.2557C57.3851 12.89 56.2259 13.4665 54.9507 13.4665Z" fill="white"/>
<path d="M54.9507 23.7293C53.5596 23.7293 52.5162 23.2104 52.5162 22.5185C52.5162 21.8267 53.5596 21.3077 54.9507 21.3077C56.3418 21.3077 57.3851 21.8267 57.3851 22.5185C57.3851 23.2104 56.2259 23.7293 54.9507 23.7293Z" fill="white"/>
<path d="M54.9507 34.05C53.5596 34.05 52.5162 33.5311 52.5162 32.8392C52.5162 32.1473 53.5596 31.6284 54.9507 31.6284C56.3418 31.6284 57.3851 32.1473 57.3851 32.8392C57.3851 33.5311 56.2259 34.05 54.9507 34.05Z" fill="white"/>
<path d="M54.9507 44.3707C53.5596 44.3707 52.5162 43.8518 52.5162 43.1599C52.5162 42.468 53.5596 41.9491 54.9507 41.9491C56.3418 41.9491 57.3851 42.468 57.3851 43.1599C57.3851 43.7941 56.2259 44.3707 54.9507 44.3707Z" fill="white"/>
<path d="M54.9507 54.6914C53.5596 54.6914 52.5162 54.1725 52.5162 53.4806C52.5162 52.7887 53.5596 52.2698 54.9507 52.2698C56.3418 52.2698 57.3851 52.7887 57.3851 53.4806C57.3851 54.1725 56.2259 54.6914 54.9507 54.6914Z" fill="white"/>
<path d="M54.9507 64.9545C53.5596 64.9545 52.5162 64.4355 52.5162 63.7436C52.5162 63.0518 53.5596 62.5328 54.9507 62.5328C56.3418 62.5328 57.3851 63.0518 57.3851 63.7436C57.3851 64.4355 56.2259 64.9545 54.9507 64.9545Z" fill="white"/>
<path d="M54.9507 75.275C53.5596 75.275 52.5162 74.7561 52.5162 74.0642C52.5162 73.3723 53.5596 72.8534 54.9507 72.8534C56.3418 72.8534 57.3851 73.3723 57.3851 74.0642C57.3851 74.7561 56.2259 75.275 54.9507 75.275Z" fill="white"/>
<path d="M54.9507 85.5957C53.5596 85.5957 52.5162 85.0768 52.5162 84.3849C52.5162 83.693 53.5596 83.1741 54.9507 83.1741C56.3418 83.1741 57.3851 83.693 57.3851 84.3849C57.3851 85.0191 56.2259 85.5957 54.9507 85.5957Z" fill="white"/>
<path d="M37.6777 3.14585C36.2866 3.14585 35.2433 2.62693 35.2433 1.93505C35.2433 1.24316 36.2866 0.724243 37.6777 0.724243C39.0688 0.724243 40.1122 1.24316 40.1122 1.93505C40.1122 2.62693 39.0688 3.14585 37.6777 3.14585Z" fill="white"/>
<path d="M37.6777 13.4665C36.2866 13.4665 35.2433 12.9476 35.2433 12.2557C35.2433 11.5638 36.2866 11.0449 37.6777 11.0449C39.0688 11.0449 40.1122 11.5638 40.1122 12.2557C40.1122 12.89 39.0688 13.4665 37.6777 13.4665Z" fill="white"/>
<path d="M37.6777 23.7293C36.2866 23.7293 35.2433 23.2104 35.2433 22.5185C35.2433 21.8267 36.2866 21.3077 37.6777 21.3077C39.0688 21.3077 40.1122 21.8267 40.1122 22.5185C40.1122 23.2104 39.0688 23.7293 37.6777 23.7293Z" fill="white"/>
<path d="M35.2433 32.8392C35.2433 33.5079 36.3332 34.05 37.6777 34.05C39.0222 34.05 40.1122 33.5079 40.1122 32.8392C40.1122 32.1705 39.0222 31.6284 37.6777 31.6284C36.3332 31.6284 35.2433 32.1705 35.2433 32.8392Z" fill="white"/>
<path d="M37.6777 44.3707C36.2866 44.3707 35.2433 43.8518 35.2433 43.1599C35.2433 42.468 36.2866 41.9491 37.6777 41.9491C39.0688 41.9491 40.1122 42.468 40.1122 43.1599C40.1122 43.7941 39.0688 44.3707 37.6777 44.3707Z" fill="white"/>
<path d="M37.6777 54.6914C36.2866 54.6914 35.2433 54.1725 35.2433 53.4806C35.2433 52.7887 36.2866 52.2698 37.6777 52.2698C39.0688 52.2698 40.1122 52.7887 40.1122 53.4806C40.1122 54.1725 39.0688 54.6914 37.6777 54.6914Z" fill="white"/>
<path d="M37.6777 64.9545C36.2866 64.9545 35.2433 64.4355 35.2433 63.7436C35.2433 63.0518 36.2866 62.5328 37.6777 62.5328C39.0688 62.5328 40.1122 63.0518 40.1122 63.7436C40.1122 64.4355 39.0688 64.9545 37.6777 64.9545Z" fill="white"/>
<path d="M35.2433 74.0642C35.2433 74.7329 36.3332 75.275 37.6777 75.275C39.0222 75.275 40.1122 74.7329 40.1122 74.0642C40.1122 73.3955 39.0222 72.8534 37.6777 72.8534C36.3332 72.8534 35.2433 73.3955 35.2433 74.0642Z" fill="white"/>
<path d="M37.6777 85.5957C36.2866 85.5957 35.2433 85.0768 35.2433 84.3849C35.2433 83.693 36.2866 83.1741 37.6777 83.1741C39.0688 83.1741 40.1122 83.693 40.1122 84.3849C40.1122 85.0191 39.0688 85.5957 37.6777 85.5957Z" fill="white"/>
<path d="M20.4047 3.14585C19.0135 3.14585 17.9702 2.62693 17.9702 1.93505C17.9702 1.24316 19.0135 0.724243 20.4047 0.724243C21.7958 0.724243 22.8391 1.24316 22.8391 1.93505C22.8391 2.62693 21.7958 3.14585 20.4047 3.14585Z" fill="white"/>
<path d="M20.4047 13.4665C19.0135 13.4665 17.9702 12.9476 17.9702 12.2557C17.9702 11.5638 19.0135 11.0449 20.4047 11.0449C21.7958 11.0449 22.8391 11.5638 22.8391 12.2557C22.8391 12.89 21.7958 13.4665 20.4047 13.4665Z" fill="white"/>
<path d="M20.4047 23.7293C19.0135 23.7293 17.9702 23.2104 17.9702 22.5185C17.9702 21.8267 19.0135 21.3077 20.4047 21.3077C21.7958 21.3077 22.8391 21.8267 22.8391 22.5185C22.8391 23.2104 21.7958 23.7293 20.4047 23.7293Z" fill="white"/>
<path d="M20.4047 34.05C19.0135 34.05 17.9702 33.5311 17.9702 32.8392C17.9702 32.1473 19.0135 31.6284 20.4047 31.6284C21.7958 31.6284 22.8391 32.1473 22.8391 32.8392C22.8391 33.5311 21.7958 34.05 20.4047 34.05Z" fill="white"/>
<path d="M20.4047 44.3707C19.0135 44.3707 17.9702 43.8518 17.9702 43.1599C17.9702 42.468 19.0135 41.9491 20.4047 41.9491C21.7958 41.9491 22.8391 42.468 22.8391 43.1599C22.8391 43.7941 21.7958 44.3707 20.4047 44.3707Z" fill="white"/>
<path d="M20.4047 54.6914C19.0135 54.6914 17.9702 54.1725 17.9702 53.4806C17.9702 52.7887 19.0135 52.2698 20.4047 52.2698C21.7958 52.2698 22.8391 52.7887 22.8391 53.4806C22.8391 54.1725 21.7958 54.6914 20.4047 54.6914Z" fill="white"/>
<path d="M20.4047 64.9545C19.0135 64.9545 17.9702 64.4355 17.9702 63.7436C17.9702 63.0518 19.0135 62.5328 20.4047 62.5328C21.7958 62.5328 22.8391 63.0518 22.8391 63.7436C22.8391 64.4355 21.7958 64.9545 20.4047 64.9545Z" fill="white"/>
<path d="M20.4047 75.275C19.0135 75.275 17.9702 74.7561 17.9702 74.0642C17.9702 73.3723 19.0135 72.8534 20.4047 72.8534C21.7958 72.8534 22.8391 73.3723 22.8391 74.0642C22.8391 74.7561 21.7958 75.275 20.4047 75.275Z" fill="white"/>
<path d="M20.4047 85.5957C19.0135 85.5957 17.9702 85.0768 17.9702 84.3849C17.9702 83.693 19.0135 83.1741 20.4047 83.1741C21.7958 83.1741 22.8391 83.693 22.8391 84.3849C22.8391 85.0191 21.7958 85.5957 20.4047 85.5957Z" fill="white"/>
<path d="M3.24755 3.14585C1.85643 3.14585 0.813094 2.62693 0.813094 1.93505C0.813094 1.24316 1.85643 0.724243 3.24755 0.724243C4.63867 0.724243 5.68201 1.24316 5.68201 1.93505C5.68201 2.62693 4.52274 3.14585 3.24755 3.14585Z" fill="white"/>
<path d="M3.24755 13.4665C1.85643 13.4665 0.813094 12.9476 0.813094 12.2557C0.813094 11.5638 1.85643 11.0449 3.24755 11.0449C4.63867 11.0449 5.68201 11.5638 5.68201 12.2557C5.68201 12.89 4.52274 13.4665 3.24755 13.4665Z" fill="white"/>
<path d="M3.24755 23.7293C1.85643 23.7293 0.813094 23.2104 0.813094 22.5185C0.813094 21.8267 1.85643 21.3077 3.24755 21.3077C4.63867 21.3077 5.68201 21.8267 5.68201 22.5185C5.68201 23.2104 4.52274 23.7293 3.24755 23.7293Z" fill="white"/>
<path d="M3.24755 34.05C1.85643 34.05 0.813094 33.5311 0.813094 32.8392C0.813094 32.1473 1.85643 31.6284 3.24755 31.6284C4.63867 31.6284 5.68201 32.1473 5.68201 32.8392C5.68201 33.5311 4.52274 34.05 3.24755 34.05Z" fill="white"/>
<path d="M3.24755 44.3707C1.85643 44.3707 0.813086 43.8518 0.813086 43.1599C0.813086 42.468 1.85643 41.9491 3.24755 41.9491C4.63867 41.9491 5.68201 42.468 5.68201 43.1599C5.68201 43.7941 4.52274 44.3707 3.24755 44.3707Z" fill="white"/>
<path d="M3.24755 54.6914C1.85643 54.6914 0.813086 54.1725 0.813086 53.4806C0.813086 52.7887 1.85643 52.2698 3.24755 52.2698C4.63867 52.2698 5.68201 52.7887 5.68201 53.4806C5.68201 54.1725 4.52274 54.6914 3.24755 54.6914Z" fill="white"/>
<path d="M3.24755 64.9545C1.85643 64.9545 0.813086 64.4355 0.813086 63.7436C0.813086 63.0518 1.85643 62.5328 3.24755 62.5328C4.63867 62.5328 5.68201 63.0518 5.68201 63.7436C5.68201 64.4355 4.52274 64.9545 3.24755 64.9545Z" fill="white"/>
<path d="M3.24755 75.275C1.85643 75.275 0.813086 74.7561 0.813086 74.0642C0.813086 73.3723 1.85643 72.8534 3.24755 72.8534C4.63867 72.8534 5.68201 73.3723 5.68201 74.0642C5.68201 74.7561 4.52274 75.275 3.24755 75.275Z" fill="white"/>
<path d="M3.24755 85.5957C1.85643 85.5957 0.813086 85.0768 0.813086 84.3849C0.813086 83.693 1.85643 83.1741 3.24755 83.1741C4.63867 83.1741 5.68201 83.693 5.68201 84.3849C5.68201 85.0191 4.52274 85.5957 3.24755 85.5957Z" fill="white"/>
</g>
<defs>
<clipPath id="clip0_15_864">
<rect width="84.8715" height="125.432" fill="white" transform="translate(126.245 0.724243) rotate(90)"/>
</clipPath>
</defs>
</svg>
