<svg width="187" height="200" viewBox="0 0 187 200" fill="none" xmlns="http://www.w3.org/2000/svg">
<g opacity="0.2" clip-path="url(#clip0_15_1382)">
<path d="M32.5616 0.358643C-52.4231 0.358643 -121.17 69.1055 -121.17 154.09C-121.17 238.864 -52.4231 307.822 32.5616 307.822C117.335 307.822 186.293 239.075 186.293 154.09C186.082 69.1055 117.335 0.358643 32.5616 0.358643ZM32.5616 297.91C-46.9402 297.91 -111.259 233.592 -111.259 154.09C-111.259 74.5884 -46.9402 10.27 32.5616 10.27C112.063 10.27 176.382 74.5884 176.382 154.09C176.382 233.381 111.852 297.91 32.5616 297.91Z" fill="white"/>
<path d="M32.5627 33.4669C-33.8645 33.4669 -87.8497 87.4522 -87.8497 153.879C-87.8497 220.307 -33.8645 274.292 32.5627 274.292C98.9899 274.292 152.975 220.517 152.975 154.09C152.975 87.4522 98.9899 33.4669 32.5627 33.4669ZM32.5627 255.945C-23.7422 255.945 -69.5032 210.184 -69.5032 153.879C-69.5032 97.5744 -23.7422 51.8135 32.5627 51.8135C88.8676 51.8135 134.629 97.5744 134.629 153.879C134.629 210.184 88.8676 255.945 32.5627 255.945Z" fill="white"/>
<path d="M32.5621 86.3976C-4.76365 86.3976 -35.1304 116.764 -35.1304 154.09C-35.1304 191.416 -4.97453 221.782 32.5621 221.782C69.8879 221.782 100.255 191.416 100.255 154.09C100.044 116.764 69.8879 86.3976 32.5621 86.3976ZM32.5621 190.361C12.5285 190.361 -3.70925 174.124 -3.70925 154.09C-3.70925 134.056 12.5285 117.819 32.5621 117.819C52.5957 117.819 68.8335 134.056 68.8335 154.09C68.8335 174.124 52.5957 190.361 32.5621 190.361Z" fill="white"/>
</g>
<defs>
<clipPath id="clip0_15_1382">
<rect width="307.252" height="307.252" fill="white" transform="translate(-121.17 0.358643)"/>
</clipPath>
</defs>
</svg>
