<svg width="171" height="149" viewBox="0 0 171 149" fill="none" xmlns="http://www.w3.org/2000/svg">
<path d="M6.11518 43.8842C6.11518 45.528 4.87823 46.7609 3.22896 46.7609C1.57969 46.7609 0.342743 45.528 0.342743 43.8842C0.342743 42.2404 1.57969 41.0076 3.22896 41.0076C4.87823 41.0076 6.11518 42.3774 6.11518 43.8842Z" fill="white"/>
<path d="M30.7169 43.8842C30.7169 45.528 29.4799 46.7609 27.8307 46.7609C26.1814 46.7609 24.9445 45.528 24.9445 43.8842C24.9445 42.2404 26.1814 41.0076 27.8307 41.0076C29.3425 41.0076 30.7169 42.3774 30.7169 43.8842Z" fill="white"/>
<path d="M55.1807 43.8842C55.1807 45.528 53.9438 46.7609 52.2945 46.7609C50.6452 46.7609 49.4083 45.528 49.4083 43.8842C49.4083 42.2404 50.6452 41.0076 52.2945 41.0076C53.9438 41.0076 55.1807 42.3774 55.1807 43.8842Z" fill="white"/>
<path d="M79.7824 43.8842C79.7824 45.528 78.5455 46.7609 76.8962 46.7609C75.2469 46.7609 74.01 45.528 74.01 43.8842C74.01 42.2404 75.2469 41.0076 76.8962 41.0076C78.5455 41.0076 79.7824 42.3774 79.7824 43.8842Z" fill="white"/>
<path d="M104.384 43.8842C104.384 45.528 103.147 46.7609 101.498 46.7609C99.8486 46.7609 98.6117 45.528 98.6117 43.8842C98.6117 42.2404 99.8486 41.0076 101.498 41.0076C103.01 41.0076 104.384 42.3774 104.384 43.8842Z" fill="white"/>
<path d="M128.986 43.8842C128.986 45.528 127.749 46.7609 126.1 46.7609C124.45 46.7609 123.213 45.528 123.213 43.8842C123.213 42.2404 124.45 41.0076 126.1 41.0076C127.749 41.0076 128.986 42.3774 128.986 43.8842Z" fill="white"/>
<path d="M153.45 43.8842C153.45 45.528 152.213 46.7609 150.563 46.7609C148.914 46.7609 147.677 45.528 147.677 43.8842C147.677 42.2404 148.914 41.0076 150.563 41.0076C152.213 41.0076 153.45 42.3774 153.45 43.8842Z" fill="white"/>
<path d="M6.11518 64.2944C6.11518 65.9382 4.87823 67.1711 3.22896 67.1711C1.57969 67.1711 0.342743 65.9382 0.342743 64.2944C0.342743 62.6506 1.57969 61.4177 3.22896 61.4177C4.87823 61.4177 6.11518 62.6506 6.11518 64.2944Z" fill="white"/>
<path d="M30.7169 64.2944C30.7169 65.9382 29.4799 67.1711 27.8307 67.1711C26.1814 67.1711 24.9445 65.9382 24.9445 64.2944C24.9445 62.6506 26.1814 61.4177 27.8307 61.4177C29.3425 61.4177 30.7169 62.6506 30.7169 64.2944Z" fill="white"/>
<path d="M55.1807 64.2944C55.1807 65.9382 53.9438 67.1711 52.2945 67.1711C50.6452 67.1711 49.4083 65.9382 49.4083 64.2944C49.4083 62.6506 50.6452 61.4177 52.2945 61.4177C53.9438 61.4177 55.1807 62.6506 55.1807 64.2944Z" fill="white"/>
<path d="M79.7824 64.2944C79.7824 65.9382 78.5455 67.1711 76.8962 67.1711C75.2469 67.1711 74.01 65.9382 74.01 64.2944C74.01 62.6506 75.2469 61.4177 76.8962 61.4177C78.5455 61.4177 79.7824 62.6506 79.7824 64.2944Z" fill="white"/>
<path d="M104.384 64.2944C104.384 65.9382 103.147 67.1711 101.498 67.1711C99.8486 67.1711 98.6117 65.9382 98.6117 64.2944C98.6117 62.6506 99.8486 61.4177 101.498 61.4177C103.01 61.4177 104.384 62.6506 104.384 64.2944Z" fill="white"/>
<path d="M128.986 64.2944C128.986 65.9382 127.749 67.1711 126.1 67.1711C124.45 67.1711 123.213 65.9382 123.213 64.2944C123.213 62.6506 124.45 61.4177 126.1 61.4177C127.749 61.4177 128.986 62.6506 128.986 64.2944Z" fill="white"/>
<path d="M153.45 64.2944C153.45 65.9382 152.213 67.1711 150.563 67.1711C148.914 67.1711 147.677 65.9382 147.677 64.2944C147.677 62.6506 148.914 61.4177 150.563 61.4177C152.213 61.4177 153.45 62.6506 153.45 64.2944Z" fill="white"/>
<path d="M6.11521 3.19991C6.11521 4.84371 4.87826 6.07657 3.22899 6.07657C1.57973 6.07657 0.342773 4.84371 0.342773 3.19991C0.342773 1.5561 1.57973 0.323242 3.22899 0.323242C4.87826 0.323242 6.11521 1.5561 6.11521 3.19991Z" fill="white"/>
<path d="M30.7169 3.19991C30.7169 4.84371 29.4799 6.07657 27.8307 6.07657C26.1814 6.07657 24.9445 4.84371 24.9445 3.19991C24.9445 1.5561 26.1814 0.323242 27.8307 0.323242C29.3425 0.323242 30.7169 1.5561 30.7169 3.19991Z" fill="white"/>
<path d="M55.1807 3.19991C55.1807 4.84371 53.9438 6.07657 52.2945 6.07657C50.6452 6.07657 49.4083 4.84371 49.4083 3.19991C49.4083 1.5561 50.7827 0.323242 52.2945 0.323242C53.9438 0.323242 55.1807 1.5561 55.1807 3.19991Z" fill="white"/>
<path d="M79.7824 3.19991C79.7824 4.84371 78.5455 6.07657 76.8962 6.07657C75.2469 6.07657 74.01 4.84371 74.01 3.19991C74.01 1.5561 75.3844 0.323242 76.8962 0.323242C78.408 0.323242 79.7824 1.5561 79.7824 3.19991Z" fill="white"/>
<path d="M104.384 3.19991C104.384 4.84371 103.147 6.07657 101.498 6.07657C99.8486 6.07657 98.6117 4.84371 98.6117 3.19991C98.6117 1.5561 99.8486 0.323242 101.498 0.323242C103.01 0.323242 104.384 1.5561 104.384 3.19991Z" fill="white"/>
<path d="M128.986 3.19991C128.986 4.84371 127.749 6.07657 126.1 6.07657C124.45 6.07657 123.213 4.84371 123.213 3.19991C123.213 1.5561 124.45 0.323242 126.1 0.323242C127.749 0.323242 128.986 1.5561 128.986 3.19991Z" fill="white"/>
<path d="M153.45 3.19991C153.45 4.84371 152.213 6.07657 150.563 6.07657C148.914 6.07657 147.677 4.84371 147.677 3.19991C147.677 1.5561 148.914 0.323242 150.563 0.323242C152.213 0.323242 153.45 1.5561 153.45 3.19991Z" fill="white"/>
<path d="M6.11518 23.6108C6.11518 25.2546 4.87823 26.4875 3.22896 26.4875C1.57969 26.4875 0.342743 25.1176 0.342743 23.6108C0.342743 21.967 1.57969 20.7341 3.22896 20.7341C4.87823 20.7341 6.11518 21.967 6.11518 23.6108Z" fill="white"/>
<path d="M30.7169 23.6108C30.7169 25.2546 29.4799 26.4875 27.8307 26.4875C26.1814 26.4875 24.9445 25.2546 24.9445 23.6108C24.9445 21.967 26.1814 20.7341 27.8307 20.7341C29.3425 20.7341 30.7169 21.967 30.7169 23.6108Z" fill="white"/>
<path d="M55.1807 23.6108C55.1807 25.2546 53.9438 26.4875 52.2945 26.4875C50.6452 26.4875 49.4083 25.2546 49.4083 23.6108C49.4083 21.967 50.6452 20.7341 52.2945 20.7341C53.9438 20.7341 55.1807 21.967 55.1807 23.6108Z" fill="white"/>
<path d="M79.7824 23.6108C79.7824 25.2546 78.5455 26.4875 76.8962 26.4875C75.2469 26.4875 74.01 25.2546 74.01 23.6108C74.01 21.967 75.2469 20.7341 76.8962 20.7341C78.5455 20.7341 79.7824 21.967 79.7824 23.6108Z" fill="white"/>
<path d="M104.384 23.6108C104.384 25.2546 103.147 26.4875 101.498 26.4875C99.8486 26.4875 98.6117 25.2546 98.6117 23.6108C98.6117 21.967 99.8486 20.7341 101.498 20.7341C103.01 20.7341 104.384 21.967 104.384 23.6108Z" fill="white"/>
<path d="M128.986 23.6108C128.986 25.2546 127.749 26.4875 126.1 26.4875C124.45 26.4875 123.213 25.2546 123.213 23.6108C123.213 21.967 124.45 20.7341 126.1 20.7341C127.749 20.7341 128.986 21.967 128.986 23.6108Z" fill="white"/>
<path d="M153.45 23.6108C153.45 25.2546 152.213 26.4875 150.563 26.4875C148.914 26.4875 147.677 25.2546 147.677 23.6108C147.677 21.967 148.914 20.7341 150.563 20.7341C152.213 20.7341 153.45 21.967 153.45 23.6108Z" fill="white"/>
<path d="M6.11518 84.5686C6.11518 86.2124 4.87823 87.4452 3.22896 87.4452C1.57969 87.4452 0.342743 86.2124 0.342743 84.5686C0.342743 82.9247 1.57969 81.6919 3.22896 81.6919C4.87823 81.6919 6.11518 83.0617 6.11518 84.5686Z" fill="white"/>
<path d="M30.7169 84.5686C30.7169 86.2124 29.4799 87.4452 27.8307 87.4452C26.1814 87.4452 24.9445 86.2124 24.9445 84.5686C24.9445 82.9247 26.1814 81.6919 27.8307 81.6919C29.3425 81.6919 30.7169 83.0617 30.7169 84.5686Z" fill="white"/>
<path d="M55.1807 84.5686C55.1807 86.2124 53.9438 87.4452 52.2945 87.4452C50.6452 87.4452 49.4083 86.2124 49.4083 84.5686C49.4083 82.9247 50.6452 81.6919 52.2945 81.6919C53.9438 81.6919 55.1807 83.0617 55.1807 84.5686Z" fill="white"/>
<path d="M79.7824 84.5686C79.7824 86.2124 78.5455 87.4452 76.8962 87.4452C75.2469 87.4452 74.01 86.2124 74.01 84.5686C74.01 82.9247 75.2469 81.6919 76.8962 81.6919C78.5455 81.6919 79.7824 83.0617 79.7824 84.5686Z" fill="white"/>
<path d="M104.384 84.5686C104.384 86.2124 103.147 87.4452 101.498 87.4452C99.8486 87.4452 98.6117 86.2124 98.6117 84.5686C98.6117 82.9247 99.8486 81.6919 101.498 81.6919C103.01 81.6919 104.384 83.0617 104.384 84.5686Z" fill="white"/>
<path d="M128.986 84.5686C128.986 86.2124 127.749 87.4452 126.1 87.4452C124.45 87.4452 123.213 86.2124 123.213 84.5686C123.213 82.9247 124.45 81.6919 126.1 81.6919C127.749 81.6919 128.986 83.0617 128.986 84.5686Z" fill="white"/>
<path d="M153.45 84.5686C153.45 86.2124 152.213 87.4452 150.563 87.4452C148.914 87.4452 147.677 86.2124 147.677 84.5686C147.677 82.9247 148.914 81.6919 150.563 81.6919C152.213 81.6919 153.45 83.0617 153.45 84.5686Z" fill="white"/>
<path d="M6.11518 104.979C6.11518 106.623 4.87823 107.856 3.22896 107.856C1.57969 107.856 0.342743 106.623 0.342743 104.979C0.342743 103.335 1.57969 102.102 3.22896 102.102C4.87823 102.102 6.11518 103.335 6.11518 104.979Z" fill="white"/>
<path d="M30.7169 104.979C30.7169 106.623 29.4799 107.856 27.8307 107.856C26.1814 107.856 24.9445 106.623 24.9445 104.979C24.9445 103.335 26.1814 102.102 27.8307 102.102C29.3425 102.102 30.7169 103.335 30.7169 104.979Z" fill="white"/>
<path d="M55.1807 104.979C55.1807 106.623 53.9438 107.856 52.2945 107.856C50.6452 107.856 49.4083 106.623 49.4083 104.979C49.4083 103.335 50.6452 102.102 52.2945 102.102C53.9438 102.102 55.1807 103.335 55.1807 104.979Z" fill="white"/>
<path d="M76.8962 107.856C78.4902 107.856 79.7824 106.568 79.7824 104.979C79.7824 103.39 78.4902 102.102 76.8962 102.102C75.3022 102.102 74.01 103.39 74.01 104.979C74.01 106.568 75.3022 107.856 76.8962 107.856Z" fill="white"/>
<path d="M104.384 104.979C104.384 106.623 103.147 107.856 101.498 107.856C99.8486 107.856 98.6117 106.623 98.6117 104.979C98.6117 103.335 99.8486 102.102 101.498 102.102C103.01 102.102 104.384 103.335 104.384 104.979Z" fill="white"/>
<path d="M128.986 104.979C128.986 106.623 127.749 107.856 126.1 107.856C124.45 107.856 123.213 106.623 123.213 104.979C123.213 103.335 124.45 102.102 126.1 102.102C127.749 102.102 128.986 103.335 128.986 104.979Z" fill="white"/>
<path d="M153.45 104.979C153.45 106.623 152.213 107.856 150.563 107.856C148.914 107.856 147.677 106.623 147.677 104.979C147.677 103.335 148.914 102.102 150.563 102.102C152.213 102.102 153.45 103.335 153.45 104.979Z" fill="white"/>
<path d="M6.11518 125.39C6.11518 127.034 4.87823 128.267 3.22896 128.267C1.57969 128.267 0.342743 127.034 0.342743 125.39C0.342743 123.746 1.57969 122.513 3.22896 122.513C4.87823 122.513 6.11518 123.746 6.11518 125.39Z" fill="white"/>
<path d="M30.7169 125.39C30.7169 127.034 29.4799 128.267 27.8307 128.267C26.1814 128.267 24.9445 127.034 24.9445 125.39C24.9445 123.746 26.1814 122.513 27.8307 122.513C29.3425 122.513 30.7169 123.746 30.7169 125.39Z" fill="white"/>
<path d="M55.1807 125.39C55.1807 127.034 53.9438 128.267 52.2945 128.267C50.6452 128.267 49.4083 127.034 49.4083 125.39C49.4083 123.746 50.6452 122.513 52.2945 122.513C53.9438 122.513 55.1807 123.746 55.1807 125.39Z" fill="white"/>
<path d="M79.7824 125.39C79.7824 127.034 78.5455 128.267 76.8962 128.267C75.2469 128.267 74.01 127.034 74.01 125.39C74.01 123.746 75.2469 122.513 76.8962 122.513C78.5455 122.513 79.7824 123.746 79.7824 125.39Z" fill="white"/>
<path d="M104.384 125.39C104.384 127.034 103.147 128.267 101.498 128.267C99.8486 128.267 98.6117 127.034 98.6117 125.39C98.6117 123.746 99.8486 122.513 101.498 122.513C103.01 122.513 104.384 123.746 104.384 125.39Z" fill="white"/>
<path d="M128.986 125.39C128.986 127.034 127.749 128.267 126.1 128.267C124.45 128.267 123.213 127.034 123.213 125.39C123.213 123.746 124.45 122.513 126.1 122.513C127.749 122.513 128.986 123.746 128.986 125.39Z" fill="white"/>
<path d="M153.45 125.39C153.45 127.034 152.213 128.267 150.563 128.267C148.914 128.267 147.677 127.034 147.677 125.39C147.677 123.746 148.914 122.513 150.563 122.513C152.213 122.513 153.45 123.746 153.45 125.39Z" fill="white"/>
<path d="M6.11518 145.663C6.11518 147.307 4.87823 148.54 3.22896 148.54C1.57969 148.54 0.342743 147.307 0.342743 145.663C0.342743 144.02 1.57969 142.787 3.22896 142.787C4.87823 142.787 6.11518 144.157 6.11518 145.663Z" fill="white"/>
<path d="M30.7169 145.663C30.7169 147.307 29.4799 148.54 27.8307 148.54C26.1814 148.54 24.9445 147.307 24.9445 145.663C24.9445 144.02 26.1814 142.787 27.8307 142.787C29.3425 142.787 30.7169 144.157 30.7169 145.663Z" fill="white"/>
<path d="M55.1807 145.663C55.1807 147.307 53.9438 148.54 52.2945 148.54C50.6452 148.54 49.4083 147.307 49.4083 145.663C49.4083 144.02 50.6452 142.787 52.2945 142.787C53.9438 142.787 55.1807 144.157 55.1807 145.663Z" fill="white"/>
<path d="M79.7824 145.663C79.7824 147.307 78.5455 148.54 76.8962 148.54C75.2469 148.54 74.01 147.307 74.01 145.663C74.01 144.02 75.2469 142.787 76.8962 142.787C78.5455 142.787 79.7824 144.157 79.7824 145.663Z" fill="white"/>
<path d="M104.384 145.663C104.384 147.307 103.147 148.54 101.498 148.54C99.8486 148.54 98.6117 147.307 98.6117 145.663C98.6117 144.02 99.8486 142.787 101.498 142.787C103.01 142.787 104.384 144.157 104.384 145.663Z" fill="white"/>
<path d="M128.986 145.663C128.986 147.307 127.749 148.54 126.1 148.54C124.45 148.54 123.213 147.307 123.213 145.663C123.213 144.02 124.45 142.787 126.1 142.787C127.749 142.787 128.986 144.157 128.986 145.663Z" fill="white"/>
<path d="M153.45 145.663C153.45 147.307 152.213 148.54 150.563 148.54C148.914 148.54 147.677 147.307 147.677 145.663C147.677 144.02 148.914 142.787 150.563 142.787C152.213 142.787 153.45 144.157 153.45 145.663Z" fill="white"/>
</svg>
