<svg width="652" height="597" viewBox="0 0 652 597" fill="none" xmlns="http://www.w3.org/2000/svg">
<path d="M409.785 17.5959L455.123 61.342L500.689 307.946H73.2708L409.785 17.5959Z" fill="#FFCF2D"/>
<path d="M455.512 60.9984L410.037 17.1149L417.643 9.21316C428.846 -2.42192 449.029 -1.0935 460.667 10.0835C472.304 21.2834 474.343 41.4616 463.141 53.0966L455.512 60.9984Z" fill="white"/>
<path d="M455.535 61.9602L409.075 17.1376L417.162 8.73195C422.614 3.05183 430.381 0.0972584 439.04 0.395007C447.333 0.692755 455.397 4.0367 461.171 9.57939C466.944 15.1221 470.586 23.0697 471.182 31.3608C471.801 39.9955 469.12 47.8744 463.668 53.5545L455.535 61.9602ZM410.999 17.0918L455.489 60.0133L462.637 52.6154C467.837 47.2331 470.357 39.7207 469.785 31.4753C469.212 23.5048 465.73 15.9008 460.186 10.5872C454.641 5.27349 446.921 2.06698 438.972 1.79213C430.724 1.49439 423.324 4.31154 418.147 9.69391L410.999 17.0918Z" fill="#FFCF2D"/>
<path d="M463.118 53.7839C462.935 53.7839 462.774 53.7152 462.637 53.6007L417.139 9.71719C416.864 9.44235 416.864 9.03008 417.116 8.75523C417.391 8.48039 417.826 8.48039 418.078 8.73233L463.576 52.6158C463.851 52.8907 463.851 53.3029 463.599 53.5778C463.485 53.7152 463.301 53.7839 463.118 53.7839Z" fill="#FFCF2D"/>
<path d="M550.998 306.755C550.906 306.755 550.815 306.732 550.723 306.686C550.379 306.526 550.219 306.114 550.379 305.77L614.182 163.492L489.441 11.6867V11.6637C487.081 8.45723 483.622 6.3959 479.681 5.8233C475.741 5.25071 471.823 6.28138 468.662 8.70917L463.576 12.6028C463.278 12.8318 462.843 12.786 462.614 12.4654C462.385 12.1676 462.431 11.7325 462.751 11.5034L467.837 7.60979C471.297 4.97586 475.581 3.85359 479.887 4.47199C484.194 5.09039 487.974 7.33495 490.54 10.8392L615.785 163.286L615.602 163.676L551.616 306.343C551.502 306.595 551.25 306.755 550.998 306.755Z" fill="#3FB1B5"/>
<path d="M612.945 171.165C616.816 171.165 619.955 168.027 619.955 164.157C619.955 160.286 616.816 157.148 612.945 157.148C609.073 157.148 605.934 160.286 605.934 164.157C605.934 168.027 609.073 171.165 612.945 171.165Z" fill="white"/>
<path d="M612.945 171.853C608.706 171.853 605.247 168.394 605.247 164.157C605.247 159.92 608.706 156.461 612.945 156.461C617.183 156.461 620.642 159.92 620.642 164.157C620.642 168.394 617.183 171.853 612.945 171.853ZM612.945 157.836C609.462 157.836 606.622 160.676 606.622 164.157C606.622 167.638 609.462 170.478 612.945 170.478C616.427 170.478 619.268 167.638 619.268 164.157C619.268 160.676 616.427 157.836 612.945 157.836Z" fill="#FFCF2D"/>
<path d="M533.22 290.127H567.378C577.206 290.127 585.155 298.097 585.155 307.9V308.404H515.42V307.9C515.443 298.097 523.392 290.127 533.22 290.127Z" fill="white"/>
<path d="M585.843 309.091H514.732V307.9C514.755 297.731 523.049 289.44 533.22 289.44H567.378C577.55 289.44 585.843 297.731 585.843 307.9V309.091ZM516.107 307.717H584.468C584.377 298.372 576.748 290.814 567.378 290.814H533.22C523.873 290.814 516.222 298.372 516.107 307.717Z" fill="#FFCF2D"/>
<path d="M367.746 256.39H151.506C143.373 256.39 136.798 249.816 136.798 241.686V90.4754C136.798 82.3446 143.373 75.7712 151.506 75.7712H367.746C375.879 75.7712 382.454 82.3446 382.454 90.4754V241.663C382.477 249.794 375.879 256.39 367.746 256.39Z" fill="white"/>
<path d="M367.747 257.077H151.506C143.007 257.077 136.111 250.183 136.111 241.686V90.4755C136.111 81.9782 143.007 75.0842 151.506 75.0842H367.747C376.246 75.0842 383.142 81.9782 383.142 90.4755V241.663C383.164 245.763 381.561 249.633 378.651 252.542C375.742 255.474 371.87 257.077 367.747 257.077ZM151.506 76.4585C143.785 76.4585 137.485 82.757 137.485 90.4755V241.686C137.485 249.404 143.785 255.703 151.506 255.703H367.747C371.504 255.703 375.032 254.237 377.689 251.58C380.324 248.923 381.79 245.396 381.767 241.663V90.4755C381.767 82.757 375.467 76.4585 367.747 76.4585H151.506Z" fill="#3FB1B5"/>
<path d="M367.884 242.327H153.728C150.544 242.327 147.978 239.739 147.978 236.578V91.9183C147.978 88.7346 150.567 86.1694 153.728 86.1694H367.884C371.069 86.1694 373.634 88.7575 373.634 91.9183V236.555C373.657 239.739 371.069 242.327 367.884 242.327Z" fill="#66B0F0"/>
<path d="M367.884 243.014H153.728C150.177 243.014 147.291 240.128 147.291 236.578V91.9184C147.291 88.3683 150.177 85.4824 153.728 85.4824H367.884C371.435 85.4824 374.322 88.3683 374.322 91.9184V236.555C374.345 238.273 373.68 239.899 372.466 241.113C371.229 242.327 369.625 243.014 367.884 243.014ZM153.728 86.8566C150.933 86.8566 148.665 89.1241 148.665 91.9184V236.578C148.665 239.372 150.933 241.64 153.728 241.64H367.884C369.236 241.64 370.519 241.113 371.481 240.151C372.443 239.189 372.947 237.929 372.947 236.578V91.9184C372.947 89.1241 370.679 86.8566 367.884 86.8566H153.728Z" fill="#66B0F0"/>
<path d="M161.403 100.37H158.012C156.523 100.37 155.309 99.1563 155.309 97.6676V94.2778C155.309 92.7891 156.523 91.5752 158.012 91.5752H161.403C162.892 91.5752 164.106 92.7891 164.106 94.2778V97.6676C164.083 99.1792 162.892 100.37 161.403 100.37ZM158.012 92.9494C157.279 92.9494 156.684 93.5449 156.684 94.2778V97.6676C156.684 98.4005 157.279 98.996 158.012 98.996H161.403C162.136 98.996 162.709 98.4005 162.732 97.6447V94.2778C162.732 93.5449 162.136 92.9494 161.403 92.9494H158.012Z" fill="white"/>
<path d="M176.821 100.37H173.43C171.941 100.37 170.727 99.1563 170.727 97.6676V94.2778C170.727 92.7891 171.941 91.5752 173.43 91.5752H176.821C178.31 91.5752 179.524 92.7891 179.524 94.2778V97.6676C179.524 99.1563 178.31 100.37 176.821 100.37ZM173.43 92.9494C172.697 92.9494 172.101 93.5449 172.101 94.2778V97.6676C172.101 98.4005 172.697 98.996 173.43 98.996H176.821C177.554 98.996 178.15 98.4005 178.15 97.6676V94.2778C178.15 93.5449 177.554 92.9494 176.821 92.9494H173.43Z" fill="white"/>
<path d="M192.239 100.37H188.848C187.359 100.37 186.145 99.1563 186.145 97.6676V94.2778C186.145 92.7891 187.359 91.5752 188.848 91.5752H192.239C193.728 91.5752 194.942 92.7891 194.942 94.2778V97.6676C194.942 99.1563 193.728 100.37 192.239 100.37ZM188.848 92.9494C188.115 92.9494 187.52 93.5449 187.52 94.2778V97.6676C187.52 98.4005 188.115 98.996 188.848 98.996H192.239C192.995 98.996 193.568 98.4234 193.568 97.6676V94.2778C193.568 93.5449 192.972 92.9494 192.239 92.9494H188.848Z" fill="white"/>
<path d="M305.273 307.946H221.333L237.805 256.39H288.778L305.273 307.946Z" fill="white"/>
<path d="M306.212 308.634H220.394L237.301 255.703H289.282L306.212 308.634ZM222.272 307.259H304.333L288.274 257.077H238.309L222.272 307.259Z" fill="#3FB1B5"/>
<path d="M227.931 287.31L237.805 256.39H288.778L227.931 287.31Z" fill="#3FB1B5"/>
<path d="M355.421 134.29H314.62C310.428 134.29 307.014 130.878 307.014 126.686V100.347C307.014 96.1556 310.428 92.7429 314.62 92.7429H355.421C359.614 92.7429 363.027 96.1556 363.027 100.347V126.686C363.027 130.878 359.614 134.29 355.421 134.29ZM314.62 94.1171C311.184 94.1171 308.389 96.9114 308.389 100.347V126.686C308.389 130.122 311.184 132.916 314.62 132.916H355.421C358.858 132.916 361.653 130.122 361.653 126.686V100.347C361.653 96.9114 358.858 94.1171 355.421 94.1171H314.62Z" fill="white"/>
<path d="M350.495 103.508H319.362C318.972 103.508 318.675 103.21 318.675 102.821C318.675 102.431 318.972 102.134 319.362 102.134H350.495C350.885 102.134 351.183 102.431 351.183 102.821C351.183 103.21 350.885 103.508 350.495 103.508Z" fill="white"/>
<path d="M350.495 110.608H319.362C318.972 110.608 318.675 110.31 318.675 109.921C318.675 109.532 318.972 109.234 319.362 109.234H350.495C350.885 109.234 351.183 109.532 351.183 109.921C351.183 110.31 350.885 110.608 350.495 110.608Z" fill="white"/>
<path d="M350.495 117.708H319.362C318.972 117.708 318.675 117.411 318.675 117.021C318.675 116.632 318.972 116.334 319.362 116.334H350.495C350.885 116.334 351.183 116.632 351.183 117.021C351.183 117.411 350.885 117.708 350.495 117.708Z" fill="white"/>
<path d="M350.495 124.808H319.362C318.972 124.808 318.675 124.51 318.675 124.121C318.675 123.732 318.972 123.434 319.362 123.434H350.495C350.885 123.434 351.183 123.732 351.183 124.121C351.183 124.51 350.885 124.808 350.495 124.808Z" fill="white"/>
<path d="M366.693 242.327H204.518L195.011 255.954C184.266 271.346 161.563 271.575 150.521 256.389L92.6063 176.753C95.0347 179.777 106.146 176.41 116.73 169.447C127.474 162.37 134.416 153.46 132.239 150.162L172.399 201.329L184.702 179.616C188.069 173.867 193.659 169.745 200.165 168.233L242.021 159.369H278.103L317.873 168.142C324.792 169.722 330.657 174.234 333.978 180.487L366.693 242.327Z" fill="white"/>
<path d="M172.605 268.323C163.556 268.323 155.309 264.131 149.971 256.779L92.0562 177.143L93.1558 176.318C95.1031 178.723 105.435 176.067 116.363 168.875C121.449 165.531 125.87 161.66 128.803 157.95C131.46 154.606 132.537 151.834 131.666 150.529L132.789 149.727L172.307 200.093L184.106 179.273C187.565 173.364 193.361 169.104 200.005 167.569L241.951 158.683H278.171L278.24 158.706L318.01 167.478C325.112 169.104 331.16 173.73 334.574 180.166L367.815 243.014H204.861L195.56 256.344C190.314 263.856 182.044 268.231 172.857 268.323C172.788 268.323 172.697 268.323 172.605 268.323ZM94.7136 178.471L151.093 255.978C156.225 263.032 164.152 267.04 172.88 266.948C181.608 266.857 189.466 262.711 194.461 255.565L204.174 241.64H365.57L333.382 180.808C330.152 174.715 324.448 170.341 317.735 168.806L278.034 160.057H242.089L200.302 168.898C194.025 170.364 188.55 174.395 185.297 179.96L172.491 202.566L133.224 152.544C132.903 154.262 131.781 156.415 129.856 158.82C126.832 162.622 122.296 166.607 117.096 170.02C109.834 174.784 101.105 178.54 95.9049 178.54C95.4925 178.54 95.0802 178.517 94.7136 178.471Z" fill="#3FB1B5"/>
<path d="M322.18 242.075C321.928 242.075 321.699 241.938 321.561 241.709L310.038 218.965C309.878 218.622 309.992 218.21 310.336 218.049C310.68 217.889 311.092 218.004 311.252 218.347L322.776 241.09C322.936 241.434 322.821 241.846 322.478 242.007C322.386 242.052 322.295 242.075 322.18 242.075Z" fill="#3FB1B5"/>
<path d="M203.601 244.205C203.487 244.205 203.395 244.182 203.281 244.137C202.937 243.976 202.8 243.541 202.983 243.22L214.392 220.706C214.552 220.363 214.987 220.225 215.308 220.408C215.652 220.569 215.789 221.004 215.606 221.324L204.197 243.839C204.083 244.068 203.853 244.205 203.601 244.205Z" fill="#3FB1B5"/>
<path d="M182.914 215.576C182.708 215.576 182.502 215.484 182.364 215.301L156.225 181.884C155.996 181.587 156.042 181.151 156.339 180.922C156.637 180.693 157.072 180.739 157.302 181.037L183.441 214.453C183.67 214.751 183.624 215.186 183.326 215.415C183.212 215.53 183.052 215.576 182.914 215.576Z" fill="#3FB1B5"/>
<path d="M274.093 183.053L264.036 170.799C263.784 170.501 263.83 170.066 264.128 169.837C264.426 169.585 264.861 169.631 265.09 169.929L274.277 181.083L295.284 163.264C295.582 163.012 296.018 163.058 296.247 163.333C296.499 163.63 296.453 164.066 296.178 164.295L274.093 183.053Z" fill="#3FB1B5"/>
<path d="M247.977 183.488L223.762 164.317C223.464 164.088 223.418 163.653 223.647 163.355C223.876 163.058 224.311 163.012 224.609 163.241L247.725 181.541L256.636 170.158C256.865 169.86 257.301 169.814 257.598 170.043C257.896 170.272 257.942 170.707 257.713 171.005L247.977 183.488Z" fill="#3FB1B5"/>
<path d="M103.625 189.122C101.449 189.122 100.304 188.457 99.7308 187.725C99.5017 187.427 99.5475 186.992 99.8454 186.763C100.143 186.534 100.578 186.579 100.808 186.877C101.77 188.091 104.908 188.022 109.192 186.74C113.751 185.365 119.25 182.663 124.244 179.342C129.353 175.952 133.797 172.035 136.752 168.279C139.433 164.89 140.509 162.095 139.639 160.767C139.433 160.446 139.524 160.034 139.845 159.805C140.166 159.599 140.578 159.69 140.807 160.011C142.044 161.912 140.99 165.141 137.852 169.127C134.805 172.975 130.246 177.006 125.023 180.464C119.845 183.9 114.37 186.602 109.605 188.045C107.016 188.824 105.069 189.122 103.625 189.122Z" fill="#3FB1B5"/>
<path d="M133.018 166.883C131.208 166.883 129.742 165.417 129.742 163.607C129.742 161.798 131.208 160.332 133.018 160.332C134.828 160.332 136.294 161.798 136.294 163.607C136.294 165.417 134.828 166.883 133.018 166.883ZM133.018 161.706C131.964 161.706 131.117 162.554 131.117 163.607C131.117 164.661 131.964 165.508 133.018 165.508C134.072 165.508 134.919 164.661 134.919 163.607C134.919 162.554 134.072 161.706 133.018 161.706Z" fill="#3FB1B5"/>
<path d="M260.852 183.144C259.042 183.144 257.576 181.678 257.576 179.869C257.576 178.06 259.042 176.594 260.852 176.594C262.661 176.594 264.128 178.06 264.128 179.869C264.128 181.678 262.661 183.144 260.852 183.144ZM260.852 177.968C259.798 177.968 258.95 178.815 258.95 179.869C258.95 180.923 259.798 181.77 260.852 181.77C261.905 181.77 262.753 180.923 262.753 179.869C262.753 178.815 261.905 177.968 260.852 177.968Z" fill="#3FB1B5"/>
<path d="M260.852 203.986C259.042 203.986 257.576 202.52 257.576 200.711C257.576 198.902 259.042 197.436 260.852 197.436C262.661 197.436 264.128 198.902 264.128 200.711C264.128 202.52 262.661 203.986 260.852 203.986ZM260.852 198.81C259.798 198.81 258.95 199.657 258.95 200.711C258.95 201.765 259.798 202.612 260.852 202.612C261.905 202.612 262.753 201.765 262.753 200.711C262.753 199.657 261.905 198.81 260.852 198.81Z" fill="#3FB1B5"/>
<path d="M194.186 257.054L204.518 242.327V257.054H194.186Z" fill="#3FB1B5"/>
<path d="M116.477 168.76C105.893 175.723 94.7821 179.09 92.3537 176.066C92.3079 176.021 92.285 175.975 92.2392 175.906C91.7352 175.15 91.781 174.12 92.2392 172.86C93.8199 168.714 100.349 162.301 108.642 156.85C115.24 152.498 121.746 149.475 126.259 148.536C128.871 148.009 130.818 148.17 131.758 149.177L131.987 149.452C134.14 152.75 127.222 161.683 116.477 168.76Z" fill="#FE5244"/>
<path d="M116.477 168.76C110.452 172.723 104.244 175.54 99.5703 176.639L78.6542 147.139C75.7447 143.017 76.7069 137.313 80.8535 134.405L99.6849 121.166L89.0091 103.004C87.4513 100.37 88.3448 96.9572 91.0022 95.4226C91.8728 94.9187 92.8121 94.6897 93.7514 94.6897C95.5612 94.6897 97.3481 95.583 98.4019 97.232L131.781 149.132L132.01 149.498C134.14 152.751 127.222 161.683 116.477 168.76Z" fill="#E57281"/>
<path d="M105.595 147.483C105.298 147.483 105 147.46 104.702 147.391C103.557 147.162 102.571 146.475 101.953 145.513L90.9335 129.022C90.7273 128.701 90.819 128.289 91.1168 128.06C91.4375 127.854 91.8499 127.946 92.079 128.243L103.098 144.734C103.534 145.398 104.198 145.856 104.977 146.017C105.756 146.177 106.558 146.017 107.222 145.582L109.811 143.887C111.185 142.993 111.575 141.161 110.704 139.787L99.0434 121.716C98.8372 121.395 98.9288 120.983 99.2496 120.777C99.5703 120.571 99.9827 120.662 100.189 120.983L111.85 139.054C113.133 141.07 112.537 143.749 110.544 145.032L107.955 146.727C107.268 147.231 106.443 147.483 105.595 147.483Z" fill="#9A3B82"/>
<path d="M97.0505 152.957C95.6301 152.957 94.2326 152.269 93.385 151.01C93.1788 150.689 93.2705 150.277 93.5912 150.048C93.9119 149.842 94.3243 149.933 94.5534 150.254C95.4468 151.605 97.2796 151.995 98.6541 151.124L101.014 149.636C101.678 149.2 102.159 148.536 102.32 147.734C102.48 146.933 102.343 146.131 101.907 145.467C101.701 145.146 101.793 144.734 102.113 144.505C102.434 144.299 102.847 144.391 103.076 144.711C103.717 145.696 103.946 146.864 103.694 148.032C103.442 149.177 102.755 150.162 101.77 150.804L99.4101 152.292C98.677 152.728 97.8523 152.957 97.0505 152.957Z" fill="#9A3B82"/>
<path d="M88.6658 158.087C87.2912 158.087 85.9396 157.446 85.0919 156.232L78.8377 147.414C78.6086 147.093 78.7002 146.681 78.9981 146.452C79.2959 146.223 79.7311 146.315 79.9602 146.612L86.2145 155.43C87.1538 156.736 88.9178 157.079 90.2465 156.232L90.2923 156.209L92.4687 154.995C93.156 154.56 93.6142 153.896 93.7975 153.117C93.9807 152.315 93.8203 151.514 93.3851 150.827L82.5948 134.794C82.3886 134.473 82.4574 134.061 82.7781 133.832C83.0988 133.626 83.5112 133.695 83.7403 134.015L94.5305 150.048C95.1949 151.056 95.4011 152.247 95.1491 153.392C94.8971 154.537 94.2098 155.522 93.2018 156.14L93.1789 156.163L91.0025 157.377C90.2465 157.881 89.4447 158.087 88.6658 158.087Z" fill="#9A3B82"/>
<path d="M123.991 137.039L118.516 128.541C116.706 125.724 112.926 124.946 110.154 126.824L96.5691 136.031C96.5691 136.031 100.509 143.108 110.086 137.497L113.293 142.604C106.741 146.75 104.862 155.476 109.123 161.958L123.991 137.039Z" fill="#E57281"/>
<path d="M109.123 162.645C108.894 162.645 108.688 162.53 108.551 162.324C106.397 159.026 105.641 155.086 106.489 151.239C107.268 147.62 109.353 144.505 112.354 142.398L109.857 138.412C106.558 140.222 103.556 140.749 100.899 140.039C97.5313 139.122 96.0193 136.466 95.9506 136.374L95.6528 135.824L109.032 126.48C110.544 125.472 112.331 125.105 114.095 125.472C115.859 125.838 117.371 126.869 118.356 128.404L123.831 136.901C124.037 137.221 123.946 137.634 123.625 137.84C123.304 138.046 122.892 137.954 122.686 137.634L117.21 129.136C116.431 127.923 115.24 127.098 113.82 126.823C112.422 126.525 110.979 126.823 109.811 127.625L97.5084 136.214C98.0582 136.924 99.2953 138.206 101.266 138.733C103.694 139.397 106.535 138.779 109.719 136.924L110.292 136.58L114.209 142.833L113.637 143.199C110.635 145.1 108.551 148.078 107.795 151.559C107.039 155.041 107.703 158.613 109.673 161.591C109.879 161.912 109.788 162.324 109.467 162.553C109.375 162.599 109.261 162.645 109.123 162.645Z" fill="#9A3B82"/>
<path d="M116.477 168.761C110.452 172.723 104.244 175.54 99.5703 176.639L94.3699 169.31C97.2794 165.508 102.48 160.928 108.642 156.874C115.24 152.522 121.746 149.499 126.26 148.56C128.871 148.033 130.819 148.193 131.758 149.201L131.987 149.476C132.01 149.522 132.033 149.544 132.056 149.59C132.079 149.613 132.079 149.636 132.101 149.682C132.124 149.728 132.147 149.751 132.17 149.796C133.728 153.301 126.878 161.89 116.477 168.761Z" fill="#9A3B82"/>
<path d="M278.08 139.215V159.347C278.08 165.187 269.97 169.906 260.004 169.906C250.016 169.906 241.929 165.187 241.929 159.347V139.215H278.08Z" fill="#E57281"/>
<path d="M247.22 166.814C243.944 164.913 241.905 162.256 241.905 159.347V139.215H278.079V144.803C278.079 150.598 274.551 155.797 269.19 157.973L247.22 166.814Z" fill="#9A3B82"/>
<path d="M288.159 138.024V138.368C288.159 141.849 285.341 144.666 281.859 144.666H277.713C276.315 150.301 271.229 154.492 265.135 154.492H254.872C248.801 154.492 243.692 150.324 242.318 144.666H238.171C234.689 144.666 231.871 141.849 231.871 138.368V138.024C231.871 134.543 234.689 131.726 238.171 131.726H241.928V126.756C241.928 121.442 245.846 117.044 250.954 116.312C252.077 118.19 255.468 122.679 262.386 122.427C265.639 122.312 268.663 121.694 271.16 120.961C274.162 120.091 277.163 121.923 277.919 124.786C278.033 125.427 278.102 126.069 278.102 126.733V131.703H281.859C285.318 131.703 288.159 134.543 288.159 138.024Z" fill="#E57281"/>
<path d="M280.965 131.702H278.079V126.183C278.079 125.702 278.01 125.221 277.896 124.786C277.14 121.923 274.138 120.09 271.137 120.961C268.64 121.694 265.639 122.312 262.363 122.426C255.444 122.678 252.054 118.189 250.931 116.311C245.823 117.044 241.905 121.442 241.905 126.755V131.725H238.308C238.308 131.725 234.185 116.815 237.277 112.601C240.324 108.455 243.99 110.265 243.99 110.265C243.99 110.265 241.791 97.8508 254.07 98.0798C266.326 98.3088 282.271 112.532 283.44 115.143C285.272 119.151 280.965 131.702 280.965 131.702Z" fill="#9A3B82"/>
<path d="M279.477 139.764C279.156 139.764 278.904 139.512 278.904 139.192C278.904 136.443 281.149 134.198 283.898 134.198C284.219 134.198 284.471 134.45 284.471 134.771C284.471 135.092 284.219 135.344 283.898 135.344C281.768 135.344 280.049 137.061 280.049 139.192C280.049 139.512 279.797 139.764 279.477 139.764Z" fill="#9A3B82"/>
<path d="M240.576 139.764C240.256 139.764 240.004 139.512 240.004 139.192C240.004 137.061 238.285 135.344 236.155 135.344C235.834 135.344 235.582 135.092 235.582 134.771C235.582 134.45 235.834 134.198 236.155 134.198C238.904 134.198 241.149 136.443 241.149 139.192C241.149 139.512 240.897 139.764 240.576 139.764Z" fill="#9A3B82"/>
<path d="M272.306 127.328C272.192 127.328 272.077 127.282 271.962 127.213C271.848 127.122 268.893 125.037 265.113 126.618C264.815 126.732 264.494 126.595 264.357 126.297C264.242 125.999 264.379 125.679 264.677 125.541C269.076 123.732 272.489 126.16 272.627 126.274C272.879 126.457 272.947 126.824 272.741 127.076C272.65 127.236 272.489 127.328 272.306 127.328Z" fill="#9A3B82"/>
<path d="M247.472 127.328C247.289 127.328 247.129 127.237 247.014 127.099C246.831 126.847 246.877 126.481 247.129 126.298C247.266 126.183 250.703 123.755 255.078 125.565C255.376 125.679 255.514 126.023 255.399 126.321C255.284 126.618 254.941 126.756 254.643 126.641C250.84 125.061 247.839 127.214 247.793 127.237C247.701 127.283 247.587 127.328 247.472 127.328Z" fill="#9A3B82"/>
<path d="M261.447 146.613C260.554 146.613 259.523 146.429 258.354 145.994C258.057 145.88 257.896 145.559 258.011 145.261C258.125 144.964 258.446 144.803 258.744 144.918C263.555 146.704 265.136 143.544 265.204 143.406C265.342 143.131 265.685 142.994 265.96 143.131C266.235 143.269 266.373 143.612 266.235 143.887C266.212 143.933 264.906 146.613 261.447 146.613Z" fill="#9A3B82"/>
<path d="M259.82 142.307C259.293 142.307 258.721 142.307 258.24 142.261C257.919 142.238 257.69 141.963 257.713 141.643C257.736 141.322 258.011 141.093 258.331 141.116C259.683 141.207 261.768 141.116 261.791 141.116C262.111 141.093 262.363 141.345 262.386 141.665C262.409 141.986 262.157 142.238 261.836 142.261C261.791 142.261 260.851 142.307 259.82 142.307Z" fill="#9A3B82"/>
<path d="M268.618 136.306C269.25 136.306 269.763 135.445 269.763 134.382C269.763 133.32 269.25 132.458 268.618 132.458C267.985 132.458 267.472 133.32 267.472 134.382C267.472 135.445 267.985 136.306 268.618 136.306Z" fill="#9A3B82"/>
<path d="M252.191 136.306C252.824 136.306 253.337 135.445 253.337 134.382C253.337 133.32 252.824 132.458 252.191 132.458C251.559 132.458 251.046 133.32 251.046 134.382C251.046 135.445 251.559 136.306 252.191 136.306Z" fill="#9A3B82"/>
<path d="M254.918 141.437H247.701C246.006 141.437 244.609 140.04 244.609 138.345V131.13C244.609 129.435 246.006 128.038 247.701 128.038H254.918C256.613 128.038 258.01 129.435 258.01 131.13V138.345C258.033 139.146 257.713 139.925 257.14 140.498C256.544 141.116 255.765 141.437 254.918 141.437ZM247.701 129.183C246.625 129.183 245.754 130.054 245.754 131.13V138.345C245.754 139.421 246.625 140.292 247.701 140.292H254.918C255.445 140.292 255.949 140.085 256.315 139.696C256.682 139.33 256.865 138.849 256.865 138.345V131.13C256.865 130.054 255.994 129.183 254.918 129.183H247.701Z" fill="white"/>
<path d="M272.58 141.436H265.364C263.669 141.436 262.271 140.039 262.271 138.344V131.13C262.271 129.435 263.669 128.038 265.364 128.038H272.58C274.276 128.038 275.673 129.435 275.673 131.13V138.344C275.673 140.039 274.276 141.436 272.58 141.436ZM265.364 129.183C264.287 129.183 263.417 130.053 263.417 131.13V138.344C263.417 139.421 264.287 140.291 265.364 140.291H272.58C273.657 140.291 274.528 139.421 274.528 138.344V131.13C274.528 130.053 273.657 129.183 272.58 129.183H265.364Z" fill="white"/>
<path d="M262.844 132.802H257.461V133.947H262.844V132.802Z" fill="white"/>
<path d="M274.483 234.128H249.443C246.786 234.128 244.632 231.975 244.632 229.318V216.011C244.632 213.354 246.786 211.201 249.443 211.201H274.483C277.14 211.201 279.294 213.354 279.294 216.011V229.318C279.294 231.975 277.14 234.128 274.483 234.128ZM249.443 212.575C247.542 212.575 246.007 214.11 246.007 216.011V229.318C246.007 231.219 247.542 232.754 249.443 232.754H274.483C276.384 232.754 277.919 231.219 277.919 229.318V216.011C277.919 214.11 276.384 212.575 274.483 212.575H249.443Z" fill="#66B0F0"/>
<path d="M262.593 228.081H254.116C252.765 228.081 251.665 226.982 251.665 225.631V219.699C251.665 218.347 252.765 217.248 254.116 217.248H262.593C263.944 217.248 265.044 218.347 265.044 219.699V225.631C265.044 226.982 263.944 228.081 262.593 228.081Z" fill="#66B0F0"/>
<path d="M270.84 227.921L268.229 226.18C267.518 225.699 267.083 224.875 267.083 223.982V221.371C267.083 220.477 267.518 219.653 268.229 219.172L270.84 217.431C271.459 217.019 272.261 217.477 272.261 218.256V227.119C272.284 227.875 271.459 228.333 270.84 227.921Z" fill="#66B0F0"/>
<path d="M609.371 309.091H1.19808C0.808624 309.091 0.510803 308.794 0.510803 308.404C0.510803 308.015 0.808624 307.717 1.19808 307.717H609.371C609.76 307.717 610.058 308.015 610.058 308.404C610.058 308.794 609.76 309.091 609.371 309.091Z" fill="#3FB1B5"/>
<path d="M197.004 312.412V595.181H181.036V541.357C181.036 536.341 176.958 532.264 171.941 532.264H57.6467C52.6296 532.264 48.5518 536.341 48.5518 541.357V595.181H32.584V312.412H197.004Z" fill="white"/>
<path d="M197.691 595.869H180.349V541.358C180.349 536.731 176.569 532.952 171.941 532.952H57.6468C53.0191 532.952 49.2391 536.731 49.2391 541.358V595.869H31.8967V311.725H197.691V595.869ZM181.723 594.494H196.317V313.099H33.2713V594.494H47.8645V541.358C47.8645 535.975 52.2631 531.578 57.6468 531.578H171.941C177.325 531.578 181.723 535.975 181.723 541.358V594.494Z" fill="#3FB1B5"/>
<path d="M197.485 312.412V387.444L32.584 523.195L32.6069 312.412H197.485Z" fill="#D0F0E4"/>
<path d="M172.422 394.522H57.1885C52.0569 394.522 47.8874 390.354 47.8874 385.223V333.942C47.8874 328.811 52.0569 324.643 57.1885 324.643H172.422C177.554 324.643 181.723 328.811 181.723 333.942V385.223C181.723 390.354 177.554 394.522 172.422 394.522ZM57.1885 326.017C52.8129 326.017 49.2619 329.567 49.2619 333.942V385.223C49.2619 389.598 52.8129 393.148 57.1885 393.148H172.422C176.798 393.148 180.349 389.598 180.349 385.223V333.942C180.349 329.567 176.798 326.017 172.422 326.017H57.1885Z" fill="#3FB1B5"/>
<path d="M144.106 432.679H87.3826L85.0229 416.44H141.769L144.106 432.679Z" fill="#FFCF2D"/>
<path d="M174.369 407.073C167.29 407.073 161.563 412.799 161.563 419.876V432.68H113.293V419.876C113.293 412.799 119.021 407.073 126.1 407.073H174.369Z" fill="white"/>
<path d="M162.25 433.367H112.606V419.877C112.606 412.433 118.654 406.386 126.1 406.386H174.369V407.76C167.68 407.76 162.25 413.189 162.25 419.877V433.367ZM113.981 431.993H160.876V419.877C160.876 414.563 163.969 409.959 168.436 407.76H126.1C119.41 407.76 113.981 413.189 113.981 419.877V431.993Z" fill="#3FB1B5"/>
<path d="M186.397 416.441H138.127C136.638 411.036 131.667 407.073 125.779 407.073H174.049C179.937 407.073 184.885 411.036 186.397 416.441Z" fill="white"/>
<path d="M187.314 417.128H137.624L137.487 416.624C136.043 411.402 131.232 407.76 125.803 407.76V406.386H174.073C180.098 406.386 185.459 410.44 187.085 416.258L187.314 417.128ZM138.632 415.754H185.459C183.74 411.013 179.158 407.76 174.05 407.76H131.713C134.944 409.341 137.509 412.204 138.632 415.754Z" fill="#3FB1B5"/>
<path d="M172.422 501.871H57.1885C52.0569 501.871 47.8874 497.703 47.8874 492.572V441.291C47.8874 436.161 52.0569 431.992 57.1885 431.992H172.422C177.554 431.992 181.723 436.161 181.723 441.291V492.572C181.723 497.703 177.554 501.871 172.422 501.871ZM57.1885 433.366C52.8129 433.366 49.2619 436.916 49.2619 441.291V492.572C49.2619 496.947 52.8129 500.497 57.1885 500.497H172.422C176.798 500.497 180.349 496.947 180.349 492.572V441.291C180.349 436.916 176.798 433.366 172.422 433.366H57.1885Z" fill="#3FB1B5"/>
<path d="M138.424 359.25C138.035 359.25 137.737 358.953 137.737 358.563C137.737 354.853 134.736 351.852 131.025 351.852H98.6082C94.8969 351.852 91.8957 354.853 91.8957 358.563C91.8957 358.953 91.5979 359.25 91.2085 359.25C90.819 359.25 90.5212 358.953 90.5212 358.563C90.5212 354.097 94.1409 350.478 98.6082 350.478H131.025C135.492 350.478 139.112 354.097 139.112 358.563C139.112 358.953 138.814 359.25 138.424 359.25Z" fill="#3FB1B5"/>
<path d="M138.424 466.6C138.035 466.6 137.737 466.302 137.737 465.913C137.737 462.202 134.736 459.202 131.025 459.202H98.6082C94.8969 459.202 91.8957 462.202 91.8957 465.913C91.8957 466.302 91.5979 466.6 91.2085 466.6C90.819 466.6 90.5212 466.302 90.5212 465.913C90.5212 461.446 94.1409 457.828 98.6082 457.828H131.025C135.492 457.828 139.112 461.446 139.112 465.913C139.112 466.302 138.814 466.6 138.424 466.6Z" fill="#3FB1B5"/>
<path d="M585.155 312.412H568.134V595.799H585.155V312.412Z" fill="white"/>
<path d="M585.843 596.487H567.446V311.725H585.843V596.487ZM568.821 595.113H584.468V313.099H568.821V595.113Z" fill="#3FB1B5"/>
<path d="M651.111 596.487H295.88C295.491 596.487 295.193 596.189 295.193 595.8C295.193 595.411 295.491 595.113 295.88 595.113H651.111C651.501 595.113 651.799 595.411 651.799 595.8C651.799 596.189 651.501 596.487 651.111 596.487Z" fill="#3FB1B5"/>
<path d="M80.9225 269.537H70.6362C70.6362 269.537 55.9514 208.361 43.0535 206.368C30.1555 204.376 29.4911 227.921 29.4911 227.921C29.4911 227.921 29.7203 192.122 61.9536 197.024C94.2099 201.925 80.9225 269.537 80.9225 269.537Z" fill="white"/>
<path d="M81.4958 270.224H70.1099L69.9724 269.697C69.9266 269.536 66.2382 254.237 61.0378 238.914C52.4239 213.56 46.4446 207.582 42.9624 207.055C40.5798 206.689 38.4722 207.238 36.7311 208.704C30.6601 213.743 30.2019 227.806 30.2019 227.943L28.8274 227.92C28.8274 227.737 28.8732 223.546 30.2249 218.186C31.4849 213.216 34.1423 206.276 39.7093 201.512C45.3679 196.68 52.8821 194.939 62.0916 196.359C68.0481 197.252 72.8819 200.321 76.4787 205.429C82.2518 213.651 84.8864 226.958 84.2678 245.03C83.8097 258.428 81.6562 269.559 81.6333 269.674L81.4958 270.224ZM71.1866 268.849H80.3733C80.8085 266.444 82.5038 256.55 82.8933 244.961C83.3056 232.753 82.3205 216.148 75.3561 206.231C71.9885 201.421 67.4524 198.558 61.8855 197.733C53.1112 196.405 45.9406 198.031 40.6027 202.589C38.9991 203.963 37.6245 205.544 36.4791 207.216C38.4264 205.841 40.6715 205.36 43.1915 205.75C48.8043 206.62 55.2647 217.66 62.3665 238.548C67.0171 252.267 70.4764 266.009 71.1866 268.849Z" fill="#3FB1B5"/>
<path d="M76.4093 269.308C76.0428 269.308 75.722 269.01 75.722 268.621C74.966 223.019 65.2983 206.918 57.3259 201.467C51.2778 197.321 45.9858 199.199 45.94 199.222C45.5734 199.36 45.1839 199.177 45.0465 198.81C44.909 198.444 45.0923 198.054 45.4589 197.917C45.7109 197.825 51.4611 195.787 58.1048 200.322C63.2365 203.849 67.4289 210.308 70.5445 219.561C74.5537 231.471 76.7529 247.961 77.0966 268.598C77.0966 268.987 76.7988 269.308 76.4093 269.308Z" fill="#3FB1B5"/>
<path d="M108.94 268.62H60.6248V307.946H108.94V268.62Z" fill="#FE5244"/>
<path d="M119.112 288.295C116.043 289.623 112.377 289.463 108.964 287.974C106.444 286.875 104.061 285.065 102.137 282.592C99.4793 279.156 97.6923 274.461 97.6923 268.62C97.6923 254.466 86.421 245.579 81.7933 264.314C81.4726 265.62 81.1747 267.04 80.9227 268.62V268.575V268.483C80.9227 268.437 80.9228 268.368 80.9457 268.3V268.208C81.0373 267.04 81.3809 263.582 82.4348 259.413C83.2137 256.321 84.382 252.886 86.1232 249.702C86.9937 248.122 88.0017 246.61 89.193 245.259C92.2628 241.731 96.4781 239.258 102.228 239.258C112.812 239.258 120.556 251.717 123.511 264.131C126.1 274.919 125.046 285.707 119.112 288.295Z" fill="white"/>
<path d="M114.599 289.875C112.652 289.875 110.613 289.44 108.689 288.592C105.963 287.401 103.511 285.477 101.587 283.004C98.5858 279.133 97.005 274.14 97.005 268.62C97.005 262.161 94.1643 254.878 89.9261 254.374C86.8562 254.008 84.1529 257.695 82.4576 264.475C82.114 265.895 81.8391 267.269 81.5871 268.735L80.2125 268.62V268.483C80.2125 268.437 80.2125 268.322 80.2354 268.208V268.139C80.3271 266.857 80.6936 263.421 81.7475 259.23C82.6867 255.519 83.9467 252.198 85.5046 249.358C86.4897 247.595 87.5206 246.083 88.666 244.8C92.2628 240.655 96.8217 238.571 102.228 238.571C113.225 238.571 121.174 251.328 124.175 263.971C125.504 269.536 125.871 275.01 125.183 279.385C124.427 284.309 122.411 287.584 119.387 288.913C117.921 289.554 116.295 289.875 114.599 289.875ZM89.5137 252.977C89.7199 252.977 89.9031 253 90.0864 253.023C94.6683 253.572 98.3796 260.581 98.3796 268.643C98.3796 273.865 99.8687 278.56 102.687 282.202C104.473 284.493 106.741 286.279 109.239 287.378C112.515 288.798 116.02 288.913 118.838 287.699C123.969 285.454 125.596 275.858 122.847 264.337C121.312 257.855 118.586 251.878 115.195 247.503C111.369 242.579 106.902 239.991 102.228 239.991C97.257 239.991 93.0417 241.937 89.7199 245.762C88.6431 246.999 87.658 248.396 86.7417 250.091C85.5962 252.198 84.6111 254.557 83.8093 257.168C84.1988 256.527 84.5882 255.954 85.0006 255.451C86.6271 253.458 88.2766 252.977 89.5137 252.977Z" fill="#3FB1B5"/>
<path d="M116.661 289.417C116.317 289.417 116.019 289.165 115.974 288.799C112.629 257.398 105 247.686 99.204 245.075C94.0265 242.739 89.6508 245.785 89.605 245.808C89.3072 246.037 88.8719 245.946 88.6428 245.648C88.4137 245.35 88.5053 244.915 88.8032 244.686C89.0093 244.549 93.8661 241.159 99.7538 243.816C103.648 245.579 107.039 249.565 109.811 255.703C113.293 263.375 115.813 274.461 117.325 288.638C117.371 289.005 117.096 289.348 116.707 289.394C116.707 289.417 116.684 289.417 116.661 289.417Z" fill="#3FB1B5"/>
<path d="M28.8037 227.92C28.8037 231.699 28.3684 246.152 42.1598 246.816C55.9512 247.48 57.3257 226.661 57.3257 226.661C57.3257 226.661 50.5446 208.246 43.0533 206.368C30.3844 203.184 28.8037 227.92 28.8037 227.92Z" fill="#3FB1B5"/>
<path d="M97.692 268.62H80.9224C84.794 244.365 97.692 253.481 97.692 268.62Z" fill="#3FB1B5"/>
<path opacity="0.4" d="M382.477 90.4754V241.663C382.477 249.794 375.879 256.367 367.77 256.367H194.69C183.831 271.323 161.449 271.392 150.498 256.367L150.475 256.344C146.122 256.046 142.274 253.825 139.799 250.549L143.786 247.114L245.503 159.347L342.363 75.7712H367.77C375.879 75.7712 382.477 82.3675 382.477 90.4754Z" fill="white"/>
<path opacity="0.4" d="M119.112 288.982C116.065 290.356 112.377 290.15 108.963 288.661V307.946H73.2937L102.159 283.05L108.986 277.163L114.187 272.674L124.244 264.131C127.176 276.637 125.55 286.027 119.112 288.982Z" fill="white"/>
<path d="M422.866 390.743V518.225H393.404L374.642 465.844L347.769 390.743H422.866Z" fill="#A0505A"/>
<path d="M347.769 390.743H422.866V431.672L356.704 415.685L347.769 390.743Z" fill="#73325A"/>
<path d="M423.553 518.912H392.924L373.382 464.355L374.986 465.225C375.031 465.248 378.834 467.287 386.578 468.294C393.725 469.233 405.822 469.44 422.706 465.157L423.553 464.95V518.912ZM393.886 517.537H422.179V466.714C405.455 470.86 393.451 470.608 386.28 469.669C381.08 468.982 377.643 467.859 375.833 467.126L393.886 517.537Z" fill="white"/>
<path d="M389.968 478.83C387.746 478.83 385.936 477.021 385.936 474.799C385.936 472.577 387.746 470.768 389.968 470.768C392.191 470.768 394 472.577 394 474.799C394 477.021 392.191 478.83 389.968 478.83ZM389.968 472.142C388.502 472.142 387.311 473.333 387.311 474.799C387.311 476.265 388.502 477.456 389.968 477.456C391.435 477.456 392.626 476.265 392.626 474.799C392.626 473.333 391.435 472.142 389.968 472.142Z" fill="white"/>
<path d="M405.913 489.618C403.691 489.618 401.881 487.808 401.881 485.587C401.881 483.365 403.691 481.556 405.913 481.556C408.136 481.556 409.946 483.365 409.946 485.587C409.946 487.808 408.136 489.618 405.913 489.618ZM405.913 482.93C404.447 482.93 403.256 484.121 403.256 485.587C403.256 487.053 404.447 488.244 405.913 488.244C407.38 488.244 408.571 487.053 408.571 485.587C408.571 484.121 407.38 482.93 405.913 482.93Z" fill="white"/>
<path d="M417.78 477.639C415.558 477.639 413.748 475.83 413.748 473.608C413.748 471.386 415.558 469.577 417.78 469.577C420.002 469.577 421.812 471.386 421.812 473.608C421.812 475.83 420.002 477.639 417.78 477.639ZM417.78 470.951C416.314 470.951 415.123 472.142 415.123 473.608C415.123 475.074 416.314 476.265 417.78 476.265C419.246 476.265 420.438 475.074 420.438 473.608C420.438 472.142 419.246 470.951 417.78 470.951Z" fill="white"/>
<path d="M413.084 502.169C410.862 502.169 409.052 500.36 409.052 498.138C409.052 495.916 410.862 494.107 413.084 494.107C415.306 494.107 417.116 495.916 417.116 498.138C417.116 500.36 415.306 502.169 413.084 502.169ZM413.084 495.481C411.618 495.481 410.426 496.672 410.426 498.138C410.426 499.604 411.618 500.795 413.084 500.795C414.55 500.795 415.741 499.604 415.741 498.138C415.741 496.672 414.55 495.481 413.084 495.481Z" fill="white"/>
<path d="M393.313 496.077C391.091 496.077 389.281 494.267 389.281 492.046C389.281 489.824 391.091 488.015 393.313 488.015C395.536 488.015 397.345 489.824 397.345 492.046C397.345 494.267 395.536 496.077 393.313 496.077ZM393.313 489.389C391.847 489.389 390.656 490.58 390.656 492.046C390.656 493.512 391.847 494.703 393.313 494.703C394.78 494.703 395.971 493.512 395.971 492.046C395.971 490.58 394.78 489.389 393.313 489.389Z" fill="white"/>
<path d="M398.766 514.4C396.543 514.4 394.734 512.59 394.734 510.368C394.734 508.147 396.543 506.337 398.766 506.337C400.988 506.337 402.798 508.147 402.798 510.368C402.798 512.59 400.988 514.4 398.766 514.4ZM398.766 507.712C397.299 507.712 396.108 508.903 396.108 510.368C396.108 511.834 397.299 513.025 398.766 513.025C400.232 513.025 401.423 511.834 401.423 510.368C401.423 508.903 400.232 507.712 398.766 507.712Z" fill="white"/>
<path d="M436.795 541.999L416.589 583.936C413.725 590.692 407.104 595.09 399.75 595.09H373.977C367.38 595.09 363.37 588.402 365.89 582.309L391.801 519.828C393.244 516.026 395.787 512.865 398.971 510.644C402.179 508.422 406.028 507.162 410.082 507.162C415.718 507.162 421.308 510.987 425.019 515.224L434 524.913C438.146 529.631 439.223 536.25 436.795 541.999Z" fill="#66B0F0"/>
<path d="M436.795 541.999L416.589 583.935C413.725 590.692 407.104 595.09 399.751 595.09H372.351C369.808 595.09 368.365 593.509 367.517 591.333H373.611C380.965 591.333 387.586 586.936 390.449 580.179L413.748 531.6C415.924 527.066 420.529 524.157 425.569 524.157C432.144 524.157 437.138 528.967 438.055 535.059C438.146 537.395 437.734 539.754 436.795 541.999Z" fill="white"/>
<path d="M399.75 595.777H372.351C369.808 595.777 367.952 594.357 366.875 591.585C366.784 591.379 366.83 591.127 366.944 590.944C367.082 590.761 367.288 590.646 367.517 590.646H373.611C380.69 590.646 387.059 586.432 389.808 579.904C389.808 579.904 389.808 579.882 389.831 579.882L413.129 531.303C415.42 526.539 420.3 523.47 425.569 523.47C432.19 523.47 437.734 528.302 438.742 534.967C438.742 534.99 438.742 535.013 438.742 535.036C438.834 537.51 438.398 539.96 437.436 542.274C437.436 542.274 437.436 542.297 437.413 542.297L417.207 584.21C414.229 591.242 407.379 595.777 399.75 595.777ZM368.594 592.021C369.464 593.647 370.678 594.402 372.351 594.402H399.75C406.829 594.402 413.198 590.188 415.947 583.661C415.947 583.661 415.947 583.638 415.97 583.638L436.176 541.724C437.047 539.617 437.459 537.395 437.367 535.128C436.451 529.173 431.503 524.844 425.569 524.844C420.827 524.844 416.428 527.615 414.366 531.898L391.068 580.454C388.089 587.486 381.24 592.021 373.611 592.021H368.594Z" fill="#66B0F0"/>
<path d="M432.144 522.897C429.716 521.569 426.783 520.607 424.218 520.607C419.292 520.607 414.733 523.47 412.603 527.913L388.479 578.21C385.409 585.47 378.307 590.165 370.404 590.165H365.959C365.73 589.73 365.57 589.272 365.41 588.791H370.404C377.758 588.791 384.355 584.417 387.219 577.66L387.242 577.637L411.388 527.318C413.748 522.393 418.788 519.233 424.241 519.233C425.982 519.233 428.066 519.805 429.853 520.424L432.144 522.897Z" fill="white"/>
<path d="M347.769 390.743L342.019 465.844L339.453 499.49C339.453 499.49 322.706 518.133 303.646 506.636L294.826 465.867L274.643 372.58C269.19 347.363 286.418 322.833 312.008 319.421L347.769 390.743Z" fill="#A0505A"/>
<path d="M316.544 511.972C312.443 511.972 307.93 510.941 303.302 508.147L303.05 507.987L293.932 464.882L295.032 465.226C316.727 471.73 341.606 465.271 341.859 465.203L342.798 464.951L340.14 500.703L339.98 500.887C339.797 501.07 335.627 505.674 329.006 508.926C325.685 510.529 321.378 511.972 316.544 511.972ZM304.264 507.117C311.87 511.606 319.98 511.789 328.365 507.689C334.046 504.895 337.987 500.955 338.789 500.108L341.263 466.737C339.178 467.218 333.772 468.386 326.784 469.028C318.743 469.783 306.945 469.967 295.719 466.852L304.264 507.117Z" fill="white"/>
<path d="M315.696 487.305C313.474 487.305 311.664 485.495 311.664 483.273C311.664 481.052 313.474 479.242 315.696 479.242C317.918 479.242 319.728 481.052 319.728 483.273C319.728 485.495 317.918 487.305 315.696 487.305ZM315.696 480.617C314.23 480.617 313.038 481.808 313.038 483.273C313.038 484.739 314.23 485.93 315.696 485.93C317.162 485.93 318.353 484.739 318.353 483.273C318.353 481.808 317.162 480.617 315.696 480.617Z" fill="white"/>
<path d="M336.956 482.174C334.734 482.174 332.924 480.365 332.924 478.143C332.924 475.922 334.734 474.112 336.956 474.112C339.178 474.112 340.988 475.922 340.988 478.143C340.988 480.365 339.178 482.174 336.956 482.174ZM336.956 475.487C335.49 475.487 334.298 476.678 334.298 478.143C334.298 479.609 335.49 480.8 336.956 480.8C338.422 480.8 339.613 479.609 339.613 478.143C339.613 476.678 338.422 475.487 336.956 475.487Z" fill="white"/>
<path d="M302.867 477.64C300.645 477.64 298.835 475.83 298.835 473.608C298.835 471.387 300.645 469.577 302.867 469.577C305.089 469.577 306.899 471.387 306.899 473.608C306.899 475.83 305.089 477.64 302.867 477.64ZM302.867 470.952C301.401 470.952 300.209 472.143 300.209 473.608C300.209 475.074 301.401 476.265 302.867 476.265C304.333 476.265 305.524 475.074 305.524 473.608C305.524 472.143 304.333 470.952 302.867 470.952Z" fill="white"/>
<path d="M312.351 505.513C310.129 505.513 308.319 503.704 308.319 501.482C308.319 499.261 310.129 497.451 312.351 497.451C314.574 497.451 316.384 499.261 316.384 501.482C316.384 503.704 314.574 505.513 312.351 505.513ZM312.351 498.825C310.885 498.825 309.694 500.016 309.694 501.482C309.694 502.948 310.885 504.139 312.351 504.139C313.818 504.139 315.009 502.948 315.009 501.482C315.009 500.016 313.818 498.825 312.351 498.825Z" fill="white"/>
<path d="M327.952 498.825C325.73 498.825 323.92 497.016 323.92 494.794C323.92 492.572 325.73 490.763 327.952 490.763C330.175 490.763 331.984 492.572 331.984 494.794C331.984 497.016 330.175 498.825 327.952 498.825ZM327.952 492.137C326.486 492.137 325.295 493.328 325.295 494.794C325.295 496.26 326.486 497.451 327.952 497.451C329.419 497.451 330.61 496.26 330.61 494.794C330.61 493.328 329.419 492.137 327.952 492.137Z" fill="white"/>
<path d="M361.538 507.506L339.453 595.8H332.489C332.168 595.8 331.87 595.777 331.549 595.754C326.28 595.273 321.836 590.83 320.713 585.585L303.623 506.59C322.683 518.11 339.453 499.467 339.453 499.467L361.538 507.506Z" fill="#66B0F0"/>
<path d="M362.66 552.81C367.311 528.257 368.593 509.499 360.575 507.987C352.557 506.476 338.285 522.76 333.634 547.313C328.983 571.866 331.412 593.579 339.43 595.09C347.448 596.625 358.009 577.386 362.66 552.81Z" fill="white"/>
<path d="M340.347 595.869C340.003 595.869 339.636 595.846 339.293 595.777C335.123 594.998 332.214 589.364 331.091 579.928C330.014 570.835 330.679 559.2 332.947 547.198C335.1 535.861 339.476 525.302 345.272 517.469C350.587 510.3 356.36 506.498 360.69 507.323C364.859 508.102 366.921 512.82 367.036 521.752C367.127 529.036 365.913 539.228 363.324 552.947C361.492 562.612 358.72 571.705 355.306 579.24C351.939 586.684 348.25 591.906 344.653 594.357C343.187 595.342 341.744 595.869 340.347 595.869ZM359.499 508.582C355.833 508.582 350.908 512.201 346.395 518.294C340.713 525.966 336.429 536.319 334.298 547.45C332.053 559.337 331.389 570.812 332.443 579.767C333.474 588.425 336.063 593.761 339.545 594.426C340.873 594.678 342.34 594.265 343.897 593.212C350.931 588.425 358.376 571.774 361.973 552.695C364.562 539.09 365.753 528.967 365.661 521.775C365.57 513.713 363.806 509.315 360.438 508.674C360.14 508.605 359.819 508.582 359.499 508.582Z" fill="#66B0F0"/>
<path d="M330.427 546.923C328.021 559.658 327.311 571.957 328.456 581.576C329.281 588.493 331.022 593.418 333.405 595.8H332.488C332.168 595.8 331.87 595.777 331.549 595.754C329.396 592.914 327.861 588.15 327.082 581.737C325.913 572.003 326.624 559.543 329.075 546.671C331.389 534.487 336.062 523.058 342.271 514.469C345.982 509.338 349.877 505.742 353.428 504.116L355.489 504.803C347.311 507.231 334.894 523.355 330.427 546.923Z" fill="white"/>
<path d="M312.008 319.398L416.52 308.634L520.987 337.927L520.093 351.807C518.673 373.703 499.796 390.743 477.849 390.743H347.793L312.008 319.398Z" fill="#FE5244"/>
<path d="M473.243 381.812H343.188C342.798 381.812 342.5 381.514 342.5 381.125C342.5 380.736 342.798 380.438 343.188 380.438H473.243C483.186 380.438 493.61 375.193 501.857 366.008C509.669 357.305 514.343 346.426 514.343 336.921C514.343 336.531 514.641 336.234 515.03 336.234C515.419 336.234 515.717 336.531 515.717 336.921C515.717 346.769 510.906 357.992 502.888 366.948C494.366 376.384 483.576 381.812 473.243 381.812Z" fill="white"/>
<path d="M463.003 370.36H337.918C337.529 370.36 337.231 370.062 337.231 369.672C337.231 369.283 337.529 368.985 337.918 368.985H463.003C471.686 368.985 480.666 364.908 488.249 357.488C495.374 350.525 500.368 341.547 501.949 332.843C502.018 332.477 502.384 332.225 502.751 332.294C503.117 332.362 503.369 332.729 503.3 333.095C500.07 350.708 482.728 370.36 463.003 370.36Z" fill="white"/>
<path d="M451.984 358.679H331.275C330.885 358.679 330.587 358.381 330.587 357.991C330.587 357.602 330.885 357.304 331.275 357.304H451.984C468.478 357.304 482.797 342.463 487.905 328.515C488.043 328.148 488.432 327.965 488.776 328.102C489.142 328.24 489.326 328.629 489.188 328.973C486.347 336.737 481.216 344.043 474.71 349.54C467.631 355.518 459.773 358.679 451.984 358.679Z" fill="white"/>
<path d="M446.027 346.082H325.318C324.929 346.082 324.631 345.784 324.631 345.395C324.631 345.005 324.929 344.708 325.318 344.708H446.027C457.39 344.708 469.303 337.31 477.138 325.423C477.344 325.102 477.779 325.01 478.1 325.217C478.421 325.423 478.513 325.858 478.306 326.178C470.197 338.455 457.848 346.082 446.027 346.082Z" fill="white"/>
<path d="M440.3 334.63H319.591C319.201 334.63 318.904 334.332 318.904 333.942C318.904 333.553 319.201 333.255 319.591 333.255H440.3C449.051 333.255 457.871 329.224 465.134 321.918C465.409 321.643 465.844 321.643 466.096 321.918C466.371 322.193 466.371 322.628 466.096 322.88C458.582 330.461 449.418 334.63 440.3 334.63Z" fill="white"/>
<path d="M434.115 322.949H313.406C313.016 322.949 312.718 322.651 312.718 322.262C312.718 321.872 313.016 321.574 313.406 321.574H434.115C439.269 321.574 444.447 320.109 449.532 317.246C449.853 317.062 450.288 317.177 450.472 317.498C450.655 317.818 450.54 318.253 450.22 318.437C444.928 321.437 439.498 322.949 434.115 322.949Z" fill="white"/>
<path d="M347.541 391.431C347.289 391.431 347.037 391.294 346.922 391.042L311.161 319.697C311 319.353 311.138 318.941 311.459 318.781C311.802 318.62 312.215 318.758 312.375 319.078L348.136 390.423C348.297 390.767 348.159 391.179 347.839 391.34C347.747 391.408 347.655 391.431 347.541 391.431Z" fill="white"/>
<path d="M526.714 242.327C516.863 245.122 507.172 244.297 506.141 241.297C505.179 238.434 509.532 233.532 518.352 230.28C518.787 230.12 519.245 229.959 519.704 229.799C522.361 228.906 525.019 228.333 527.516 228.035C534.915 227.096 540.94 228.425 541.696 230.669C542.727 233.67 537.138 239.373 526.714 242.327Z" fill="white"/>
<path d="M514.984 244.732C509.99 244.732 506.21 243.609 505.477 241.525C504.24 237.861 509.669 232.753 518.1 229.638C518.535 229.478 518.993 229.317 519.451 229.157H519.474C522.063 228.287 524.743 227.691 527.424 227.371C535.007 226.409 541.421 227.737 542.338 230.463C542.658 231.356 542.498 232.455 541.902 233.6C539.978 237.265 534.09 240.975 526.897 243.014C522.75 244.159 518.558 244.732 514.984 244.732ZM532.212 228.424C530.814 228.424 529.279 228.516 527.607 228.722C525.018 229.043 522.43 229.615 519.933 230.463C519.474 230.623 519.016 230.783 518.604 230.944C514.618 232.409 511.227 234.356 509.074 236.441C507.264 238.181 506.416 239.922 506.806 241.09C507.562 243.312 516.382 244.548 526.53 241.686C532.143 240.105 538.695 236.784 540.688 232.959C541.101 232.158 541.238 231.448 541.055 230.898C540.642 229.684 537.389 228.424 532.212 228.424Z" fill="#3FB1B5"/>
<path d="M520.482 309.114H516.702L506.782 242.167V242.121L506.53 240.449C507.011 237.403 511.777 233.097 520.184 230.302C524.377 228.905 528.546 228.287 532.097 228.218L535.717 238.136L536.06 239.075L547.515 270.476C554.388 289.234 540.482 309.114 520.482 309.114Z" fill="#A0505A"/>
<path d="M535.946 238.846C533.54 240.357 530.425 241.754 526.713 242.808C518.191 245.213 509.554 244.228 506.782 242.167V242.121L506.53 240.449C507.011 237.403 511.777 233.097 520.184 230.302C524.377 228.905 528.546 228.287 532.097 228.218L535.946 238.846Z" fill="#73325A"/>
<path d="M397.78 254.031L385.753 283.943C379.819 298.716 365.478 308.404 349.533 308.404H187.863V293.608C187.863 290.036 190.062 286.829 193.407 285.569L210.016 279.271C211.528 278.698 213.109 278.4 214.712 278.4H233.567L340.278 267.636L358.697 225.47L397.78 254.031Z" fill="#A0505A"/>
<path d="M188.55 299.861C188.16 299.861 187.863 299.563 187.863 299.174C187.863 296.174 189.672 293.54 192.49 292.463L205.022 287.722C205.365 287.585 205.778 287.768 205.915 288.112C206.053 288.455 205.869 288.867 205.526 289.005L192.994 293.746C190.726 294.616 189.237 296.746 189.237 299.174C189.237 299.563 188.939 299.861 188.55 299.861Z" fill="#73325A"/>
<path d="M188.55 307.419C188.16 307.419 187.863 307.121 187.863 306.732C187.863 303.732 189.672 301.098 192.49 300.021L205.022 295.28C205.365 295.143 205.778 295.326 205.915 295.67C206.053 296.013 205.869 296.425 205.526 296.563L192.994 301.304C190.726 302.174 189.237 304.304 189.237 306.732C189.237 307.121 188.939 307.419 188.55 307.419Z" fill="#73325A"/>
<path d="M192.742 308.404C192.467 308.404 192.192 308.221 192.101 307.946C191.963 307.58 192.146 307.191 192.513 307.076L205.044 302.564C205.411 302.427 205.8 302.61 205.915 302.976C206.052 303.343 205.869 303.732 205.503 303.847L192.971 308.359C192.902 308.382 192.811 308.404 192.742 308.404Z" fill="#73325A"/>
<path d="M203.968 281.813C203.968 281.813 215.697 251.878 219.455 252.382C223.212 252.885 209.054 279.889 209.054 279.889L203.968 281.813Z" fill="#FE5244"/>
<path d="M358.697 225.493L355.993 231.654L390.609 271.85L397.78 254.031L358.697 225.493Z" fill="#73325A"/>
<path d="M506.783 242.19L520.986 337.927L416.543 308.633L397.78 254.008L349.35 218.622L366.349 198.375C381.515 180.304 403.897 169.86 427.494 169.86H461.056C490.242 169.86 517.115 185.801 531.112 211.407L541.994 230.234C541.994 230.234 538.718 225.424 521.055 230.257C505.5 234.54 506.783 242.19 506.783 242.19Z" fill="#3FB1B5"/>
<path d="M397.78 254.26C397.735 254.26 397.666 254.26 397.62 254.237C397.253 254.145 397.024 253.779 397.116 253.412L402.546 229.867C402.637 229.501 403.004 229.272 403.37 229.363C403.737 229.455 403.966 229.822 403.874 230.188L398.445 253.733C398.376 254.054 398.101 254.26 397.78 254.26Z" fill="white"/>
<path d="M518.352 316.26C518.031 316.26 517.733 316.031 517.664 315.688L500.001 205.91C499.933 205.544 500.185 205.177 500.574 205.132C500.941 205.063 501.307 205.315 501.353 205.704L519.016 315.482C519.085 315.848 518.833 316.215 518.443 316.26C518.42 316.26 518.397 316.26 518.352 316.26Z" fill="white"/>
<path d="M520.757 338.614C520.689 338.614 520.643 338.614 520.574 338.591L416.337 308.862C415.97 308.747 415.764 308.381 415.856 308.014C415.97 307.648 416.337 307.442 416.703 307.533L520.941 337.262C521.307 337.377 521.513 337.743 521.422 338.11C521.33 338.408 521.055 338.614 520.757 338.614Z" fill="white"/>
<path d="M422.156 154.56V169.951L449.326 169.722V142.558L422.156 154.56Z" fill="#A0505A"/>
<path d="M451.525 137.817V138.23C451.525 142.352 448.41 145.696 444.286 145.696H442.683C441.652 149.773 432.488 154.537 425.982 154.537H418.399C410.106 154.537 403.76 147.093 405.111 138.894L405.478 136.672L403.233 135.412C401.95 134.68 401.583 133.008 402.477 131.817L407.334 125.404L408.387 119.082C409.235 113.883 412.648 109.646 417.185 107.562C418.971 127.694 436.749 130.076 441.445 130.351H444.057C448.181 130.351 451.525 133.695 451.525 137.817Z" fill="#A0505A"/>
<path d="M439.498 140.474C439.109 140.474 438.811 140.177 438.811 139.787C438.811 136.168 441.766 133.214 445.386 133.214C445.775 133.214 446.073 133.512 446.073 133.901C446.073 134.29 445.775 134.588 445.386 134.588C442.522 134.588 440.185 136.924 440.185 139.787C440.185 140.177 439.888 140.474 439.498 140.474Z" fill="#73325A"/>
<path d="M414.665 130.557C415.31 130.557 415.833 129.347 415.833 127.854C415.833 126.361 415.31 125.151 414.665 125.151C414.019 125.151 413.496 126.361 413.496 127.854C413.496 129.347 414.019 130.557 414.665 130.557Z" fill="#73325A"/>
<path d="M419.43 124.442C419.223 124.442 419.017 124.35 418.88 124.167C415.833 119.952 412.992 120.182 412.946 120.182C412.557 120.227 412.236 119.952 412.19 119.563C412.144 119.197 412.419 118.853 412.809 118.807C412.946 118.784 416.474 118.51 419.979 123.342C420.208 123.64 420.14 124.075 419.819 124.304C419.704 124.396 419.567 124.442 419.43 124.442Z" fill="#73325A"/>
<path d="M441.446 130.351H444.057C448.181 130.351 451.526 133.695 451.526 137.817V138.23C451.526 142.352 448.41 145.696 444.286 145.696L442.522 146.933C435.1 151.697 424.836 170.432 427.356 183.693C430.197 198.604 443.187 201.925 455.191 199.634C467.196 197.344 475.947 190.358 473.106 175.425C472.785 173.662 472.259 171.898 471.594 170.157C471.8 170.226 471.984 170.295 472.19 170.364C486.623 174.303 503.576 174.761 508.249 163.492C512.923 152.224 511.869 141.07 497.825 135.252C489.67 131.862 478.582 131.885 469.991 134.221C474.32 119.174 466.623 102.431 452.488 100.759C430.289 98.1253 417.551 107.287 417.208 107.539C417.185 110.196 418.994 129.045 441.446 130.351Z" fill="#73325A"/>
<path d="M472.19 171.074C471.869 171.074 471.571 170.844 471.525 170.524C469.097 157.812 458.696 150.804 458.582 150.735C458.398 150.62 458.284 150.391 458.284 150.162C458.284 149.933 458.398 149.727 458.582 149.59C465.684 144.574 468.753 137.336 469.945 133.489C470.059 133.122 470.449 132.916 470.792 133.03C471.159 133.145 471.365 133.534 471.251 133.878C470.059 137.771 467.035 144.917 460.139 150.139C462.728 152.086 470.724 158.912 472.877 170.249C472.946 170.615 472.694 170.982 472.327 171.051C472.281 171.074 472.236 171.074 472.19 171.074Z" fill="white"/>
<path d="M476.795 133.877H470.724C470.335 133.877 470.037 133.58 470.037 133.19V127.121C470.037 123.571 472.923 120.685 476.474 120.685H476.795C480.346 120.685 483.233 123.571 483.233 127.121V127.441C483.256 129.136 482.591 130.762 481.377 131.976C480.163 133.19 478.536 133.877 476.795 133.877ZM471.411 132.503H476.795C478.17 132.503 479.43 131.976 480.392 130.991C481.331 130.03 481.858 128.77 481.858 127.441V127.121C481.858 124.327 479.59 122.059 476.795 122.059H476.474C473.679 122.059 471.411 124.327 471.411 127.121V132.503Z" fill="#FE5244"/>
<path d="M480.185 143.176C477.734 143.176 475.374 141.985 473.977 139.787L470.082 133.603C469.876 133.282 469.968 132.847 470.288 132.664L476.474 128.77C478.123 127.739 480.094 127.396 481.995 127.831C483.897 128.266 485.523 129.411 486.577 131.06L486.943 131.633C487.997 133.282 488.318 135.252 487.883 137.153C487.448 139.054 486.302 140.68 484.653 141.733L484.08 142.1C482.889 142.81 481.537 143.176 480.185 143.176ZM471.617 133.442L475.145 139.054C476.886 141.802 480.575 142.627 483.37 140.886L483.942 140.52C485.294 139.672 486.21 138.367 486.554 136.809C486.898 135.252 486.623 133.671 485.775 132.32L485.409 131.747C484.561 130.396 483.255 129.48 481.697 129.136C480.139 128.793 478.559 129.068 477.207 129.915L471.617 133.442Z" fill="#FE5244"/>
<path d="M442.66 161.5C442.499 161.5 442.339 161.5 442.178 161.477C440.46 161.339 438.902 160.561 437.78 159.255L437.574 159.003C436.451 157.721 435.901 156.072 436.016 154.377C436.13 152.659 436.909 151.079 438.215 149.956L442.522 145.834C442.66 145.696 442.843 145.627 443.026 145.65C443.209 145.65 443.393 145.742 443.507 145.879L447.745 150.666C448.868 151.972 449.441 153.644 449.303 155.362C449.166 157.079 448.387 158.637 447.081 159.759L446.806 159.965C445.684 160.95 444.217 161.5 442.66 161.5ZM442.98 147.299L439.177 150.941L439.154 150.964C438.123 151.857 437.505 153.094 437.413 154.468C437.322 155.82 437.757 157.102 438.628 158.11C438.628 158.11 438.628 158.133 438.65 158.133L438.857 158.385C439.727 159.393 440.941 160.011 442.293 160.126C443.645 160.217 444.95 159.782 445.981 158.912L446.256 158.683C447.264 157.812 447.883 156.598 447.997 155.247C448.089 153.896 447.654 152.59 446.783 151.56L442.98 147.299Z" fill="#FE5244"/>
<path d="M451.434 158.98C448.227 158.98 445.271 156.85 444.355 153.621L442.408 146.589C442.316 146.223 442.522 145.856 442.889 145.742L449.922 143.795C451.8 143.268 453.771 143.52 455.466 144.459C457.161 145.421 458.398 146.979 458.925 148.857L459.109 149.521C459.635 151.399 459.383 153.369 458.444 155.064C457.482 156.759 455.924 157.995 454.046 158.522L453.381 158.705C452.717 158.912 452.075 158.98 451.434 158.98ZM445.684 153.254C446.577 156.392 449.853 158.27 452.992 157.4L453.656 157.217C455.191 156.781 456.451 155.797 457.23 154.422C458.009 153.048 458.192 151.445 457.78 149.91L457.596 149.246C457.161 147.712 456.176 146.452 454.802 145.673C453.427 144.894 451.823 144.711 450.288 145.124L443.92 146.887L445.684 153.254Z" fill="#FE5244"/>
<path d="M342.591 595.777C342.546 595.777 342.5 595.777 342.454 595.754C342.087 595.685 341.835 595.319 341.927 594.93L381.835 408.196C381.904 407.829 382.27 407.577 382.66 407.669C383.026 407.738 383.278 408.104 383.187 408.493L343.256 595.227C343.187 595.548 342.912 595.777 342.591 595.777Z" fill="#FFCF2D"/>
<path d="M524.537 595.777C524.216 595.777 523.941 595.548 523.872 595.228L483.965 408.494C483.896 408.127 484.125 407.761 484.492 407.669C484.858 407.6 485.225 407.829 485.316 408.196L525.224 594.93C525.293 595.296 525.064 595.663 524.697 595.754C524.629 595.777 524.583 595.777 524.537 595.777Z" fill="#FFCF2D"/>
<path d="M515.145 554.321H351.435C351.045 554.321 350.748 554.023 350.748 553.634C350.748 553.245 351.045 552.947 351.435 552.947H515.145C515.534 552.947 515.832 553.245 515.832 553.634C515.832 554.023 515.534 554.321 515.145 554.321Z" fill="#FFCF2D"/>
<path d="M516.037 408.356H351.068C348.983 408.356 347.288 406.661 347.288 404.577V394.522C347.288 392.438 348.983 390.743 351.068 390.743H516.037C518.122 390.743 519.817 392.438 519.817 394.522V404.577C519.817 406.661 518.122 408.356 516.037 408.356Z" fill="white"/>
<path d="M516.037 409.043H351.068C348.593 409.043 346.6 407.05 346.6 404.577V394.522C346.6 392.048 348.593 390.056 351.068 390.056H516.037C518.512 390.056 520.505 392.048 520.505 394.522V404.577C520.505 407.05 518.512 409.043 516.037 409.043ZM351.068 391.43C349.372 391.43 347.975 392.827 347.975 394.522V404.577C347.975 406.272 349.372 407.669 351.068 407.669H516.037C517.733 407.669 519.13 406.272 519.13 404.577V394.522C519.13 392.827 517.733 391.43 516.037 391.43H351.068Z" fill="#66B0F0"/>
</svg>
